<?xml version="1.0" encoding="utf-8"?>
<!-- Generator: Adobe Illustrator 21.1.0, SVG Export Plug-In . SVG Version: 6.00 Build 0)  -->
<svg version="1.1" id="Layer_1" xmlns="http://www.w3.org/2000/svg" xmlns:xlink="http://www.w3.org/1999/xlink" x="0px" y="0px"
	 viewBox="0 0 1366.8 759.7" style="enable-background:new 0 0 1366.8 759.7;" xml:space="preserve">
<style type="text/css">
	.st0{clip-path:url(#SVGID_2_);fill:#FFFFFF;}
	.st1{clip-path:url(#SVGID_2_);fill:#BDDAD6;}
	.st2{clip-path:url(#SVGID_2_);fill:#FBCCCC;}
	.st3{clip-path:url(#SVGID_2_);fill:#849ED1;}
</style>
<title>background</title>
<g>
	<defs>
		<rect id="SVGID_1_" width="1366.8" height="759.7"/>
	</defs>
	<clipPath id="SVGID_2_">
		<use xlink:href="#SVGID_1_"  style="overflow:visible;"/>
	</clipPath>
	<rect class="st0" width="1366.8" height="759.7"/>
	<path class="st1" d="M1369.2-0.6v269.2c-27.4-2.4-58-10.5-71.4-21.2c-13.2-10.5-22.7-24.8-35.2-36.1c-15.1-13.6-34-22.2-54.2-24.9
		c-21.8-2.8-43.8,1.6-65.7,1.7s-45.9-5.6-59-23c-14.8-19.8-14.5-52.4-37.5-61.8c-7.6-3.1-16-2.7-24.2-3.1
		C977.8,97.6,911.4,43.9,900.4-0.6H1369.2z"/>
	<path class="st2" d="M431.1,762H-3.7V511c27.1,2.6,56.6,10.7,69.8,21.2s22.8,25.1,35.4,36.5c15.2,13.7,34.2,22.5,54.5,25.1
		c21.9,2.8,44-1.7,66-1.7s46.2,5.6,59.3,23.3c14.9,20,14.6,53,37.7,62.5c7.6,3.1,16.1,2.7,24.3,3.2
		C381.1,683.3,415.9,722.7,431.1,762z"/>
	<path class="st3" d="M342,449.9l2.7,2.9l0.9,0.9l2.3,2.4l9.9-2.8c0.1-0.4,0.3-0.7,0.4-1.1c0.3-0.7,0.5-1.5,0.8-2.2l0.3-1
		c0.5-2.4,0.9-4.8,1.2-7.2c-0.8-2.5-1.7-4.9-2.6-7.4l-0.4-0.9c-3.6-3.1-7.4-5.9-11.4-8.5c-1.3-0.8-2.4-1.9-3.3-3.1
		c-0.4,0.1-0.8,0.2-1.2,0.4c-2.9,1.3-4.7,4.3-5.3,7.3c-0.5,3.1-0.5,6.3,0,9.4c0.2,1.6,0.4,3.3,0.6,4.9
		C338.5,446,340.2,448,342,449.9z"/>
	<path class="st3" d="M285,477.5l-0.9-1.8l-0.3-0.6l-0.8-1.5h-5.2l-0.4,0.5c-0.2,0.3-0.5,0.6-0.7,1l-0.3,0.4
		c-0.6,1.1-1.1,2.2-1.6,3.4c0,1.3,0.1,2.7,0.2,4c0,0.2,0,0.3,0,0.5c1.3,2,2.8,3.9,4.4,5.7c0.5,0.6,0.9,1.3,1.2,2c0.2,0,0.4,0,0.6,0
		c1.6-0.3,2.9-1.4,3.6-2.8c0.7-1.4,1.1-3,1.3-4.6c0.1-0.8,0.3-1.6,0.4-2.5C286.1,479.9,285.6,478.7,285,477.5z"/>
	<path class="st3" d="M251.9,560.3l0.6,1.9l0.2,0.6l0.5,1.6l5.2,0.8l0.4-0.4c0.3-0.3,0.5-0.6,0.8-0.9l0.3-0.4c0.8-1,1.5-2,2.1-3
		c0.2-1.3,0.3-2.6,0.4-4c0-0.2,0-0.3,0-0.5c-1-2.2-2.1-4.3-3.4-6.4c-0.4-0.7-0.7-1.4-0.9-2.1c-0.2,0-0.4-0.1-0.6-0.1
		c-1.6,0.1-3.1,0.9-4,2.2c-0.9,1.3-1.6,2.8-2,4.3c-0.3,0.8-0.5,1.6-0.8,2.4C251.1,557.7,251.5,559,251.9,560.3z"/>
	<path class="st3" d="M393.7,329l0.6,1.9l0.2,0.6l0.5,1.6l5.1,0.8l0.4-0.4c0.3-0.3,0.5-0.6,0.8-0.9l0.3-0.4c0.8-1,1.5-2,2.1-3
		c0.2-1.3,0.3-2.6,0.4-4c0-0.2,0-0.3,0-0.5c-1-2.2-2.1-4.3-3.4-6.4c-0.4-0.7-0.7-1.4-0.9-2.1c-0.2,0-0.4-0.1-0.6-0.1
		c-1.6,0.1-3.1,0.9-4,2.2c-0.9,1.3-1.6,2.8-2,4.3c-0.3,0.8-0.5,1.6-0.8,2.4C392.9,326.5,393.3,327.7,393.7,329z"/>
	<path class="st3" d="M371.6,397.8l-0.9-1.8l-0.3-0.6l-0.8-1.5h-5.2l-0.4,0.5c-0.2,0.3-0.5,0.6-0.7,1l-0.3,0.4
		c-0.6,1.1-1.1,2.2-1.6,3.4c0,1.3,0.1,2.7,0.2,4c0,0.2,0,0.3,0,0.5c1.3,2,2.8,3.9,4.4,5.8c0.5,0.6,0.9,1.3,1.2,2c0.2,0,0.4,0,0.6,0
		c1.6-0.3,2.9-1.4,3.6-2.8c0.7-1.4,1.1-3,1.3-4.6c0.1-0.8,0.3-1.6,0.4-2.5C372.7,400.2,372.2,398.9,371.6,397.8z"/>
	<path class="st3" d="M290.9,397.8l-0.9-1.8l-0.3-0.6l-0.8-1.5h-5.2l-0.4,0.5c-0.2,0.3-0.5,0.6-0.7,1l-0.3,0.4
		c-0.6,1.1-1.1,2.2-1.6,3.4c0,1.3,0.1,2.7,0.2,4c0,0.2,0,0.3,0,0.5c1.3,2,2.8,3.9,4.4,5.8c0.5,0.6,0.9,1.3,1.2,2c0.2,0,0.4,0,0.6,0
		c1.6-0.3,2.9-1.4,3.6-2.8c0.7-1.4,1.1-3,1.3-4.6c0.1-0.8,0.3-1.6,0.4-2.5C292,400.2,291.5,398.9,290.9,397.8z"/>
	<path class="st3" d="M306.9,427.3c0.5,1.2,0.9,2.5,1.4,3.8c4.1,0.9,8.1,2.1,12,3.6c1.2-1.3,2.2-2.8,2.8-4.4
		c-2.6-6.5-4.6-13.1-6.1-19.9l-2.5,0.9c-2,0.7-4,1.5-6,2.4c-0.9,0.4-1.9,0.8-2.8,1.3l-0.4,0.2c-0.9,0.5-1.8,1.1-2.7,1.6
		c0,0.7,0.1,1.3,0.2,2C303.5,422,305.6,424.5,306.9,427.3z"/>
	<path class="st3" d="M336.7,401.2c2-2.4,2.7-5.6,4.2-8.4c0.6-1.2,1.5-2.3,2.2-3.4c-0.9-1.9-1.7-3.8-2.4-5.7
		c-3.8,0.3-7.5,0.6-11.3,0.9c-0.3,0.4-0.5,0.8-0.8,1.2c0,0,0,0.1,0,0.1c0,4.5-0.1,9-0.3,13.4l0.9,0.5c0.9,0.5,1.8,1,2.7,1.4l0.4,0.2
		c1,0.4,2,0.8,3,1.2C335.8,402.2,336.3,401.7,336.7,401.2z"/>
	<path class="st3" d="M218.6,445.1c-1.5,1.4-3.1,2.8-4.7,4.1c-1.1,0.9-2.2,1.8-3.3,2.7l-0.9,0.8c-0.8,1-1.9,1.8-2.7,2.8
		c-0.3,0.4-0.6,0.7-0.9,1.1L206,457v0.2c0,0.2,0,0.5,0.1,1c0,0,0,0.1,0,0.1c0.9,1.8,2.1,3.4,2.9,5.2c0.9,2.1,1.4,4.3,2.4,6.4
		s2.9,3.8,5.2,3.9c0.8,0,1.6-0.2,2.4-0.5c5.9-2.4,8.3-10,6.8-16.3C224.5,452.5,221.8,448.6,218.6,445.1z"/>
	<path class="st3" d="M380.2,421.3L380.2,421.3l-0.8,0.6c-0.6,0.7-1.4,1.3-2,2c-0.2,0.3-0.4,0.5-0.6,0.8l-0.2,0.4v0.2
		c0,0.2,0,0.4,0,0.7c0,0,0,0.1,0,0.1c0.7,1.3,1.5,2.5,2.1,3.9c0.7,1.5,1,3.2,1.8,4.7c0.7,1.6,2.1,2.7,3.8,2.9c0.6,0,1.2-0.1,1.8-0.4
		c0.4-0.2,0.8-0.4,1.2-0.6C384.8,431.6,382.3,426.5,380.2,421.3z"/>
	<path class="st3" d="M279,512.7L279,512.7l-0.8,0.7c-0.6,0.7-1.4,1.3-2,2c-0.2,0.3-0.4,0.5-0.6,0.8l-0.2,0.3v0.2c0,0.2,0,0.4,0,0.7
		c0,0,0,0.1,0,0.1c0.7,1.3,1.5,2.5,2.1,3.9c0.7,1.5,1,3.2,1.8,4.7c0.7,1.6,2.1,2.7,3.8,2.9c0.6,0,1.2-0.1,1.8-0.4
		c0.4-0.2,0.8-0.4,1.2-0.6C283.5,522.9,281.1,517.9,279,512.7z"/>
	<path class="st3" d="M381.1,360.5c0-1.2-0.2-2.4-0.5-3.5c-0.4-1.4-0.8-2.7-1.5-4c-3-0.6-6.1-1.2-9.1-1.6c-1-0.2-1.9-0.4-2.8-0.7
		l-1.5,1.2l-0.2,0.2v15.8c0.2,0.7,0.5,1.4,0.8,2c0.6,1.1,1.4,2.1,2.5,2.9c1.2-0.4,2.4-0.5,3.6-0.5h1.6
		C375.7,367.9,378.1,364,381.1,360.5z"/>
	<path class="st3" d="M246.6,505.3c0.9,1.8,2.1,3.4,2.9,5.2c0.8,1.8,1.3,4,2.2,5.9c4.1,0,8.2,0.1,12.3,0.2c2.5-3.7,3.3-8.3,2.2-12.6
		c-0.7-2.8-2-5.4-3.6-7.7c-1.1,0-2.1,0-3.2,0c-1.6,0-3.1-0.1-4.6-0.4l-0.2,0.2c-1.1,0.9-2.2,1.8-3.3,2.7l-0.9,0.8
		c-0.8,1-1.9,1.8-2.7,2.8c-0.3,0.4-0.6,0.7-0.9,1.1l-0.2,0.5v0.2c0,0.2,0,0.5,0.1,1C246.6,505.2,246.6,505.3,246.6,505.3z"/>
	<path class="st3" d="M270.8,444.1c0.9,1.8,2.1,3.4,2.9,5.2s1.3,4,2.2,5.9c4.1,0,8.2,0.1,12.3,0.2c2.5-3.7,3.3-8.3,2.2-12.6
		c-0.7-2.8-2-5.4-3.6-7.7c-1.1,0-2.1,0-3.2,0c-1.6,0-3.1-0.1-4.6-0.4l-0.2,0.2c-1.1,0.9-2.2,1.8-3.3,2.7l-0.9,0.8
		c-0.8,1-1.9,1.8-2.7,2.8c-0.3,0.4-0.6,0.7-0.9,1.1l-0.2,0.5v0.2c0,0.2,0,0.5,0.1,1C270.8,444,270.8,444.1,270.8,444.1z"/>
	<path class="st3" d="M361.1,505.7c2-3.5,2.6-7.7,1.6-11.7c-0.7-2.8-2-5.4-3.6-7.7c-1.1,0-2.1,0-3.2,0c-0.9,0-1.9,0-2.8-0.1
		c-1.2,1.4-2.3,2.8-3.4,4.3c-0.7,0.9-1.3,1.8-2,2.6c2.1,4,3.9,8.2,5.2,12.5H361.1z"/>
	<path class="st3" d="M302.8,481.3c0.9,1.8,2.1,3.4,2.9,5.2s1.3,4,2.2,5.9c4.1,0,8.2,0.1,12.3,0.2c2.5-3.7,3.3-8.3,2.2-12.6
		c-0.7-2.8-2-5.4-3.6-7.7c-1.1,0-2.1,0-3.2,0c-1.6,0-3.1-0.1-4.6-0.4l-0.2,0.2c-1.1,0.9-2.2,1.8-3.3,2.7l-0.9,0.8
		c-0.8,1-1.9,1.8-2.7,2.8c-0.3,0.4-0.6,0.7-0.9,1.1l-0.2,0.5v0.2c0,0.2,0,0.5,0.1,1C302.8,481.2,302.8,481.3,302.8,481.3z"/>
</g>
</svg>
