<?xml version="1.0" encoding="utf-8"?>
<!-- Generator: Adobe Illustrator 21.1.0, SVG Export Plug-In . SVG Version: 6.00 Build 0)  -->
<svg version="1.1" id="Layer_1" xmlns="http://www.w3.org/2000/svg" xmlns:xlink="http://www.w3.org/1999/xlink" x="0px" y="0px"
	 viewBox="0 0 1366.8 759.7" style="enable-background:new 0 0 1366.8 759.7;" xml:space="preserve">
<style type="text/css">
	.st0{clip-path:url(#SVGID_2_);fill:#FACBCB;}
	.st1{clip-path:url(#SVGID_4_);enable-background:new    ;}
	.st2{enable-background:new    ;}
	.st3{fill:#849ED1;}
	.st4{clip-path:url(#SVGID_6_);enable-background:new    ;}
	.st5{clip-path:url(#SVGID_8_);enable-background:new    ;}
	.st6{clip-path:url(#SVGID_10_);enable-background:new    ;}
	.st7{clip-path:url(#SVGID_12_);enable-background:new    ;}
	.st8{clip-path:url(#SVGID_14_);enable-background:new    ;}
	.st9{clip-path:url(#SVGID_16_);enable-background:new    ;}
	.st10{clip-path:url(#SVGID_18_);enable-background:new    ;}
	.st11{clip-path:url(#SVGID_20_);enable-background:new    ;}
	.st12{clip-path:url(#SVGID_22_);enable-background:new    ;}
	.st13{clip-path:url(#SVGID_24_);enable-background:new    ;}
	.st14{clip-path:url(#SVGID_26_);enable-background:new    ;}
	.st15{clip-path:url(#SVGID_28_);enable-background:new    ;}
	.st16{clip-path:url(#SVGID_30_);enable-background:new    ;}
	.st17{clip-path:url(#SVGID_32_);enable-background:new    ;}
	.st18{clip-path:url(#SVGID_34_);enable-background:new    ;}
	.st19{fill:#859FD2;}
	.st20{clip-path:url(#SVGID_36_);enable-background:new    ;}
	.st21{clip-path:url(#SVGID_38_);enable-background:new    ;}
	.st22{clip-path:url(#SVGID_40_);enable-background:new    ;}
	.st23{clip-path:url(#SVGID_42_);enable-background:new    ;}
	.st24{clip-path:url(#SVGID_44_);enable-background:new    ;}
	.st25{clip-path:url(#SVGID_46_);enable-background:new    ;}
	.st26{clip-path:url(#SVGID_48_);enable-background:new    ;}
	.st27{clip-path:url(#SVGID_50_);enable-background:new    ;}
	.st28{clip-path:url(#SVGID_52_);enable-background:new    ;}
	.st29{clip-path:url(#SVGID_54_);enable-background:new    ;}
	.st30{clip-path:url(#SVGID_56_);enable-background:new    ;}
	.st31{clip-path:url(#SVGID_58_);enable-background:new    ;}
	.st32{clip-path:url(#SVGID_60_);enable-background:new    ;}
	.st33{clip-path:url(#SVGID_62_);fill:#F1E6A9;}
	.st34{clip-path:url(#SVGID_64_);fill:#FFFFFF;}
	.st35{clip-path:url(#SVGID_66_);fill:#FFFFFF;}
	.st36{clip-path:url(#SVGID_68_);fill:#FFFFFF;}
	.st37{clip-path:url(#SVGID_70_);fill:#FFFFFF;}
	.st38{clip-path:url(#SVGID_72_);fill:#FFFFFF;}
	.st39{clip-path:url(#SVGID_74_);fill:#FFFFFF;}
	.st40{clip-path:url(#SVGID_76_);fill:#FFFFFF;}
	.st41{clip-path:url(#SVGID_78_);fill:#FFFFFF;}
	.st42{clip-path:url(#SVGID_80_);fill:#FFFFFF;}
	.st43{clip-path:url(#SVGID_82_);fill:#FFFFFF;}
	.st44{clip-path:url(#SVGID_84_);fill:#FFFFFF;}
	.st45{clip-path:url(#SVGID_86_);fill:#FFFFFF;}
	.st46{clip-path:url(#SVGID_88_);fill:#FFFFFF;}
	.st47{clip-path:url(#SVGID_90_);fill:#FFFFFF;}
	.st48{clip-path:url(#SVGID_92_);fill:#FFFFFF;}
</style>
<title>background</title>
<g>
	<g>
		<defs>
			<rect id="SVGID_1_" width="1370.7" height="759.7"/>
		</defs>
		<clipPath id="SVGID_2_">
			<use xlink:href="#SVGID_1_"  style="overflow:visible;"/>
		</clipPath>
		<rect x="-33.1" class="st0" width="1403.8" height="767.4"/>
	</g>
	<g>
		<defs>
			<rect id="SVGID_3_" width="1370.7" height="759.7"/>
		</defs>
		<clipPath id="SVGID_4_">
			<use xlink:href="#SVGID_3_"  style="overflow:visible;"/>
		</clipPath>
		<g class="st1">
			<g class="st2">
				<path class="st3" d="M950.3,461.9c-0.4,0.2-0.8,0.3-1.2,0.5c-0.4,0.2-0.8,0.3-1.2,0.5l0.2-4.1c2.1-0.8,4.3-1.7,6.4-2.7
					c2.2-1,4.3-1.8,6.5-2.4c-2.1-0.8-4.2-1.9-6.2-3.1c-2-1.2-4-2.4-6.1-3.4l0.2-4.1c3.2,1.9,6.4,3.7,9.5,5.5
					c3.2,1.8,6.3,3.6,9.5,5.5c-2.3,1-4.6,2-6.8,3s-4.5,2-6.8,3c2.2,1.2,4.3,2.5,6.4,3.7c2.1,1.2,4.3,2.5,6.4,3.7
					c-3.4,1.5-6.7,3-10.1,4.4c-3.3,1.4-6.7,2.9-10.1,4.4l0.2-4.1c2.1-0.8,4.3-1.7,6.4-2.7c2.2-1,4.3-1.8,6.5-2.4
					c-1.7-0.7-3.4-1.5-5.1-2.5C953.6,463.6,952,462.7,950.3,461.9z"/>
			</g>
		</g>
	</g>
	<g>
		<defs>
			<rect id="SVGID_5_" width="1370.7" height="759.7"/>
		</defs>
		<clipPath id="SVGID_6_">
			<use xlink:href="#SVGID_5_"  style="overflow:visible;"/>
		</clipPath>
		<g class="st4">
			<g class="st2">
				<path class="st3" d="M964.4,416.4c0.2,2.4,0.3,4.7,0.5,7.1c0.2,2.4,0.4,4.7,0.5,7.1c0.8-0.3,1.5-0.8,2.1-1.4
					c0.6-0.7,1.1-1.5,1.4-2.5c0.4-1.5,0.3-2.8-0.5-4l3.5-1.6c0.6,1,0.9,2.1,1.1,3.2c0.2,1.1,0.1,2.3-0.3,3.5c-0.4,1.3-1,2.5-1.8,3.5
					s-1.8,1.8-2.9,2.4c-1.1,0.6-2.3,1-3.5,1.2c-1.3,0.2-2.5,0.1-3.8-0.3c-1.3-0.4-2.4-1-3.4-1.8c-1-0.8-1.8-1.8-2.4-2.9
					c-0.6-1.1-1-2.3-1.1-3.6c-0.2-1.3,0-2.6,0.3-3.9c0.3-1,0.8-1.9,1.4-2.7c0.7-0.8,1.4-1.4,2.3-1.9c0.9-0.5,1.9-0.9,3-1.2
					S963.2,416.4,964.4,416.4z M957.9,423.6c-0.4,1.3-0.4,2.4,0,3.5c0.4,1.1,1,2,1.9,2.7c0.4,0.3,1,0.6,1.6,0.8
					c-0.1-1.6-0.2-3.3-0.4-4.9c-0.1-1.6-0.3-3.3-0.4-4.9c-0.7,0.3-1.2,0.7-1.7,1.1C958.5,422.4,958.1,423,957.9,423.6z"/>
			</g>
		</g>
	</g>
	<g>
		<defs>
			<rect id="SVGID_7_" width="1370.7" height="759.7"/>
		</defs>
		<clipPath id="SVGID_8_">
			<use xlink:href="#SVGID_7_"  style="overflow:visible;"/>
		</clipPath>
		<g class="st5">
			<g class="st2">
				<path class="st3" d="M988.5,391.2l-2.1,3.5l-31.8-18.9l2.1-3.5L988.5,391.2z"/>
			</g>
		</g>
	</g>
	<g>
		<defs>
			<rect id="SVGID_9_" width="1370.7" height="759.7"/>
		</defs>
		<clipPath id="SVGID_10_">
			<use xlink:href="#SVGID_9_"  style="overflow:visible;"/>
		</clipPath>
		<g class="st6">
			<g class="st2">
				<path class="st3" d="M985.5,378.4c-1-0.8-1.8-1.8-2.5-2.9c-0.6-1.1-1-2.3-1.1-3.5c-0.1-1.2,0-2.5,0.3-3.7
					c0.3-1.3,0.9-2.4,1.8-3.5c0.9-1.1,1.9-1.9,3-2.6c1.2-0.6,2.3-1,3.6-1.2c1.2-0.2,2.5-0.1,3.7,0.3c1.2,0.3,2.4,0.9,3.4,1.7
					c1.1,0.8,1.9,1.8,2.5,2.9c0.6,1.1,1,2.3,1.1,3.5c0.1,1.2,0,2.5-0.3,3.8c-0.4,1.3-1,2.4-1.8,3.5c-0.9,1.1-1.9,1.9-3,2.5
					c-1.1,0.6-2.3,1-3.6,1.1c-1.2,0.1-2.5,0.1-3.7-0.3C987.7,379.8,986.6,379.2,985.5,378.4z M988.1,375.2c0.6,0.5,1.3,0.8,2,1
					c0.7,0.2,1.4,0.3,2.2,0.2c0.7-0.1,1.4-0.3,2.1-0.7c0.7-0.4,1.2-0.8,1.7-1.5c0.5-0.6,0.8-1.3,1-2s0.3-1.4,0.2-2.2
					c-0.1-0.7-0.3-1.4-0.6-2.1c-0.4-0.7-0.8-1.2-1.5-1.7s-1.3-0.8-2-1s-1.5-0.3-2.2-0.2c-0.7,0.1-1.4,0.3-2.1,0.7
					c-0.7,0.4-1.2,0.8-1.7,1.5c-0.5,0.6-0.8,1.3-1,2c-0.2,0.7-0.2,1.4-0.2,2.2c0.1,0.7,0.3,1.4,0.7,2.1
					C987,374.2,987.5,374.8,988.1,375.2z"/>
			</g>
		</g>
	</g>
	<g>
		<defs>
			<rect id="SVGID_11_" width="1370.7" height="759.7"/>
		</defs>
		<clipPath id="SVGID_12_">
			<use xlink:href="#SVGID_11_"  style="overflow:visible;"/>
		</clipPath>
		<g class="st7">
			<g class="st2">
				<path class="st3" d="M1019.4,356.7c-3.5-1.3-7-2.6-10.5-3.8c-3.5-1.3-7-2.6-10.5-3.9l3.1-2.7c1,0.4,2.2,0.8,3.3,1.2
					c1.2,0.4,2.3,0.8,3.5,1.1c1.2,0.4,2.3,0.8,3.4,1.3c1.1,0.5,2.1,1,3.1,1.5c-0.4-1-0.8-2.1-1.1-3.2c-0.3-1.1-0.6-2.3-0.8-3.5
					c-0.2-1.2-0.5-2.4-0.7-3.6c-0.2-1.2-0.5-2.3-0.7-3.5l3.1-2.7c0.8,3.6,1.7,7.3,2.5,10.9C1017.7,349.4,1018.5,353.1,1019.4,356.7z
					"/>
			</g>
		</g>
	</g>
	<g>
		<defs>
			<rect id="SVGID_13_" width="1370.7" height="759.7"/>
		</defs>
		<clipPath id="SVGID_14_">
			<use xlink:href="#SVGID_13_"  style="overflow:visible;"/>
		</clipPath>
		<g class="st8">
			<g class="st2">
				<path class="st3" d="M1042.1,326.9c-1.5,1.8-3,3.7-4.5,5.5c-1.5,1.8-3,3.7-4.5,5.5c0.8,0.3,1.6,0.5,2.5,0.4
					c0.9-0.1,1.8-0.3,2.7-0.9c1.3-0.8,2.1-1.9,2.4-3.3l3.7,1.3c-0.3,1.1-0.8,2.2-1.4,3.1c-0.7,0.9-1.5,1.7-2.6,2.4
					c-1.2,0.7-2.4,1.1-3.7,1.3c-1.3,0.2-2.5,0.1-3.8-0.2c-1.2-0.3-2.3-0.8-3.4-1.6c-1-0.7-1.9-1.7-2.6-2.9c-0.7-1.1-1.1-2.3-1.3-3.6
					c-0.2-1.3-0.1-2.5,0.2-3.7c0.3-1.2,0.9-2.3,1.6-3.4c0.8-1.1,1.8-1.9,2.9-2.6c0.9-0.5,1.8-0.8,2.8-1c1-0.1,2-0.1,3,0.2
					c1,0.2,2,0.7,3,1.2C1040.3,325.3,1041.2,326,1042.1,326.9z M1032.5,327.7c-1.1,0.7-1.9,1.5-2.4,2.6c-0.5,1.1-0.6,2.1-0.4,3.2
					c0.1,0.5,0.3,1.1,0.6,1.7c1-1.3,2.1-2.5,3.1-3.8c1-1.3,2.1-2.5,3.1-3.8c-0.7-0.2-1.4-0.4-2-0.4
					C1033.7,327.1,1033.1,327.3,1032.5,327.7z"/>
			</g>
		</g>
	</g>
	<g>
		<defs>
			<rect id="SVGID_15_" width="1370.7" height="759.7"/>
		</defs>
		<clipPath id="SVGID_16_">
			<use xlink:href="#SVGID_15_"  style="overflow:visible;"/>
		</clipPath>
		<g class="st9">
			<g class="st2">
				<path class="st3" d="M1080.8,336.6l-4,0.9c0.5-2.3,1.1-4.5,1.6-6.7c0.5-2.2,1.1-4.4,1.6-6.7l-13.3-15.8l4-0.9
					c1.7,2.1,3.6,4.1,5.5,6.2c1.9,2.1,3.6,4.3,5,6.5c0.1-1.3,0.3-2.6,0.6-4c0.3-1.4,0.6-2.7,0.9-4.1c0.4-1.3,0.7-2.7,1.1-4.1
					c0.4-1.4,0.7-2.7,1-4l4-0.9c-1.3,5.6-2.7,11.2-4,16.8C1083.5,325.4,1082.1,331,1080.8,336.6z"/>
			</g>
		</g>
	</g>
	<g>
		<defs>
			<rect id="SVGID_17_" width="1370.7" height="759.7"/>
		</defs>
		<clipPath id="SVGID_18_">
			<use xlink:href="#SVGID_17_"  style="overflow:visible;"/>
		</clipPath>
		<g class="st10">
			<g class="st2">
				<path class="st3" d="M1097.3,311.3c-0.1-1.3,0.1-2.6,0.5-3.8c0.4-1.2,1.1-2.3,1.9-3.2c0.8-0.9,1.8-1.7,3-2.3
					c1.2-0.6,2.4-0.9,3.8-1c1.4-0.1,2.7,0.1,3.9,0.5c1.2,0.4,2.3,1.1,3.3,1.9c0.9,0.8,1.7,1.8,2.3,3c0.6,1.2,0.9,2.4,1,3.7
					c0.1,1.3-0.1,2.6-0.5,3.8c-0.4,1.2-1.1,2.3-1.9,3.2c-0.8,0.9-1.8,1.7-3,2.3c-1.2,0.6-2.5,0.9-3.8,1c-1.4,0.1-2.7-0.1-3.9-0.5
					c-1.2-0.4-2.3-1.1-3.3-1.9c-0.9-0.8-1.7-1.8-2.3-3C1097.7,313.9,1097.3,312.6,1097.3,311.3z M1101.4,311.1
					c0,0.8,0.2,1.5,0.6,2.2s0.8,1.2,1.3,1.7c0.5,0.5,1.2,0.8,1.9,1.1c0.7,0.3,1.5,0.4,2.2,0.3c0.8,0,1.5-0.2,2.2-0.6
					s1.3-0.8,1.8-1.3c0.5-0.5,0.9-1.2,1.1-1.9c0.3-0.7,0.4-1.5,0.3-2.2s-0.2-1.5-0.6-2.2c-0.3-0.7-0.8-1.3-1.3-1.8
					c-0.6-0.5-1.2-0.9-1.9-1.1c-0.7-0.3-1.5-0.4-2.2-0.3c-0.8,0-1.5,0.2-2.2,0.6c-0.7,0.3-1.2,0.8-1.7,1.3c-0.5,0.6-0.8,1.2-1.1,1.9
					C1101.4,309.6,1101.3,310.3,1101.4,311.1z"/>
			</g>
		</g>
	</g>
	<g>
		<defs>
			<rect id="SVGID_19_" width="1370.7" height="759.7"/>
		</defs>
		<clipPath id="SVGID_20_">
			<use xlink:href="#SVGID_19_"  style="overflow:visible;"/>
		</clipPath>
		<g class="st11">
			<g class="st2">
				<path class="st3" d="M1145,322.6l-4.1-0.5l0.4-2.9l0.4-2.2c-0.9,1.5-2.1,2.6-3.6,3.3c-1.6,0.7-3.2,1-5,0.8
					c-1.9-0.3-3.4-1-4.4-2.1c-1-1.2-1.4-2.6-1.2-4.2l1.7-13.3l4.1,0.5l-1.5,11.5c0,0.9,0.2,1.7,0.7,2.4c0.5,0.7,1.3,1.2,2.6,1.4
					c0.8,0.1,1.7,0.1,2.5-0.1c0.8-0.2,1.5-0.5,2.2-1c0.7-0.4,1.2-1,1.7-1.7c0.5-0.7,0.7-1.4,0.8-2.3l1.2-8.9l4.1,0.5L1145,322.6z"/>
			</g>
		</g>
	</g>
	<g>
		<defs>
			<rect id="SVGID_21_" width="1370.7" height="759.7"/>
		</defs>
		<clipPath id="SVGID_22_">
			<use xlink:href="#SVGID_21_"  style="overflow:visible;"/>
		</clipPath>
		<g class="st12">
			<g class="st2">
				<path class="st3" d="M1190.3,320c-0.5,0.3-1.1,0.6-1.7,0.9c-0.6,0.3-1.1,0.6-1.7,0.9c-0.1-0.2-0.3-0.6-0.6-1s-0.8-0.9-1.5-1.2
					c-0.7-0.3-1.2-0.4-1.6-0.2c-0.4,0.1-0.7,0.5-0.9,1c-0.1,0.4,0,0.8,0.3,1.2c0.3,0.4,0.6,0.8,1.1,1.3c0.4,0.4,0.9,0.9,1.4,1.5
					c0.5,0.5,0.9,1.1,1.2,1.8c0.3,0.6,0.5,1.3,0.6,2.1c0.1,0.8-0.1,1.6-0.6,2.5c-0.2,0.4-0.5,0.9-0.9,1.4c-0.4,0.5-1,1-1.7,1.4
					c-0.7,0.4-1.5,0.6-2.4,0.6c-0.9,0.1-2-0.2-3.2-0.7c-1.1-0.5-2.1-1.2-2.9-2c-0.9-0.8-1.4-1.7-1.7-2.7c0.6-0.3,1.2-0.6,1.7-0.9
					c0.6-0.3,1.2-0.6,1.7-0.9c0.5,0.7,0.9,1.3,1.2,1.7c0.4,0.4,0.9,0.8,1.6,1.1c0,0,0.1,0.1,0.3,0.1c0.2,0.1,0.4,0.1,0.7,0.1
					c0.3,0,0.6-0.1,0.9-0.2c0.3-0.1,0.5-0.4,0.8-0.8c0.3-0.5,0.3-1,0.1-1.4c-0.2-0.4-0.5-0.9-1-1.3c-0.4-0.4-0.9-0.9-1.5-1.4
					c-0.5-0.5-1-1-1.4-1.6c-0.4-0.6-0.6-1.3-0.7-2.1c-0.1-0.8,0.1-1.7,0.6-2.8c0.4-0.9,1-1.6,1.6-2.1c0.6-0.5,1.3-0.8,2.1-0.9
					s1.4-0.2,2.2-0.1c0.7,0.1,1.3,0.3,1.8,0.5c0.3,0.1,0.7,0.3,1.1,0.6c0.4,0.3,0.8,0.6,1.2,0.9c0.4,0.4,0.7,0.7,1.1,1.2
					C1189.9,319,1190.1,319.5,1190.3,320z"/>
			</g>
		</g>
	</g>
	<g>
		<defs>
			<rect id="SVGID_23_" width="1370.7" height="759.7"/>
		</defs>
		<clipPath id="SVGID_24_">
			<use xlink:href="#SVGID_23_"  style="overflow:visible;"/>
		</clipPath>
		<g class="st13">
			<g class="st2">
				<path class="st3" d="M1195.8,331.4c0.7-1.1,1.6-2,2.7-2.7c1.1-0.7,2.2-1.2,3.4-1.4c1.2-0.2,2.5-0.2,3.7,0
					c1.3,0.2,2.5,0.7,3.6,1.5c1.1,0.8,2.1,1.7,2.8,2.8c0.7,1.1,1.2,2.2,1.5,3.5s0.3,2.5,0,3.7c-0.2,1.3-0.7,2.4-1.4,3.5
					c-0.7,1.1-1.6,2-2.7,2.7c-1.1,0.7-2.2,1.2-3.4,1.4c-1.2,0.2-2.5,0.2-3.8,0c-1.3-0.2-2.5-0.8-3.7-1.5s-2.1-1.7-2.8-2.8
					s-1.2-2.2-1.4-3.5c-0.2-1.2-0.3-2.5,0-3.7C1194.6,333.7,1195.1,332.5,1195.8,331.4z M1199.2,333.7c-0.4,0.7-0.7,1.4-0.9,2.1
					c-0.1,0.7-0.1,1.5,0,2.2c0.1,0.7,0.4,1.4,0.8,2c0.4,0.6,0.9,1.2,1.6,1.6c0.7,0.4,1.4,0.7,2.1,0.9c0.7,0.1,1.5,0.1,2.2,0
					c0.7-0.1,1.4-0.4,2-0.8c0.6-0.4,1.2-0.9,1.6-1.6c0.4-0.7,0.7-1.4,0.9-2.1c0.1-0.7,0.1-1.5,0-2.2c-0.1-0.7-0.4-1.4-0.8-2
					c-0.4-0.6-0.9-1.2-1.6-1.6s-1.4-0.7-2.1-0.9c-0.7-0.1-1.5-0.1-2.2,0c-0.7,0.2-1.4,0.4-2,0.9
					C1200.1,332.5,1199.6,333,1199.2,333.7z"/>
			</g>
		</g>
	</g>
	<g>
		<defs>
			<rect id="SVGID_25_" width="1370.7" height="759.7"/>
		</defs>
		<clipPath id="SVGID_26_">
			<use xlink:href="#SVGID_25_"  style="overflow:visible;"/>
		</clipPath>
		<g class="st14">
			<g class="st2">
				<path class="st3" d="M1243,357.5l2.1,2.9l-0.4,0.3c-0.6,0.5-1.1,1-1.6,1.4c-0.5,0.4-1,0.9-1.6,1.4c1.7-0.4,3.3-0.3,4.9,0.3
					c1.6,0.6,2.9,1.6,4.1,3.1c1.1,1.5,1.6,2.9,1.5,4.3c-0.1,1.4-0.7,2.7-1.7,3.7c1.7-0.3,3.2-0.2,4.7,0.5c1.5,0.6,2.8,1.6,3.9,3.1
					c1.1,1.6,1.6,3.1,1.5,4.6c-0.2,1.5-0.9,2.8-2.2,3.8l-10.9,7.9l-2.4-3.3l9.4-6.8c0.7-0.6,1.1-1.3,1.3-2.1
					c0.2-0.8-0.1-1.8-0.8-2.8c-0.5-0.7-1.1-1.3-1.8-1.7c-0.7-0.5-1.4-0.8-2.2-0.9c-0.8-0.2-1.6-0.2-2.4-0.1c-0.8,0.1-1.5,0.5-2.2,1
					l-7.3,5.3l-2.4-3.3l9.4-6.8c0.7-0.6,1.1-1.3,1.3-2.1c0.2-0.8-0.1-1.8-0.8-2.8c-0.5-0.7-1.1-1.3-1.8-1.7
					c-0.7-0.5-1.4-0.8-2.2-0.9c-0.8-0.2-1.6-0.2-2.4-0.1c-0.8,0.1-1.5,0.5-2.2,1l-7.3,5.3l-2.4-3.3L1243,357.5z"/>
			</g>
		</g>
	</g>
	<g>
		<defs>
			<rect id="SVGID_27_" width="1370.7" height="759.7"/>
		</defs>
		<clipPath id="SVGID_28_">
			<use xlink:href="#SVGID_27_"  style="overflow:visible;"/>
		</clipPath>
		<g class="st15">
			<g class="st2">
				<path class="st3" d="M1258,420.8l-1.6-3.8l2.7-1.1l2.1-0.7c-1.7,0-3.3-0.5-4.7-1.5c-1.4-1-2.5-2.3-3.2-3.9
					c-0.7-1.8-0.9-3.4-0.4-4.8c0.5-1.4,1.5-2.5,3-3.2l12.4-5.2l1.6,3.8l-10.7,4.4c-0.8,0.4-1.4,1-1.7,1.8c-0.4,0.8-0.3,1.8,0.1,2.9
					c0.3,0.8,0.8,1.5,1.3,2.1c0.6,0.6,1.2,1.1,1.9,1.4c0.7,0.3,1.5,0.5,2.3,0.6c0.8,0.1,1.6-0.1,2.4-0.4l8.3-3.5l1.6,3.8L1258,420.8
					z"/>
			</g>
		</g>
	</g>
	<g>
		<defs>
			<rect id="SVGID_29_" width="1370.7" height="759.7"/>
		</defs>
		<clipPath id="SVGID_30_">
			<use xlink:href="#SVGID_29_"  style="overflow:visible;"/>
		</clipPath>
		<g class="st16">
			<g class="st2">
				<path class="st3" d="M1268.6,441.4c-0.4,0.5-0.8,1-1.2,1.5c-0.4,0.5-0.8,1-1.2,1.5c-0.8-0.7-1.5-1.5-2.1-2.4
					c-0.6-0.9-1-2-1.3-3.1c-0.3-1.3-0.3-2.7-0.1-3.9c0.2-1.3,0.7-2.5,1.4-3.5c0.7-1.1,1.5-2,2.6-2.7c1-0.8,2.2-1.3,3.5-1.6
					c1.3-0.3,2.6-0.3,3.8-0.1c1.3,0.2,2.4,0.7,3.5,1.4c1,0.7,1.9,1.5,2.7,2.6c0.8,1.1,1.3,2.3,1.6,3.6c0.3,1.2,0.3,2.3,0.2,3.4
					c-0.1,1.1-0.4,2.2-0.9,3.1c-0.6-0.3-1.2-0.6-1.8-0.9c-0.6-0.3-1.2-0.6-1.8-0.9c0.5-1.2,0.7-2.5,0.4-3.9
					c-0.4-1.7-1.2-2.9-2.5-3.7c-1.3-0.8-2.7-1-4.3-0.7c-1.6,0.3-2.8,1.2-3.6,2.5c-0.8,1.3-1.1,2.8-0.7,4.4
					C1266.9,439.5,1267.6,440.6,1268.6,441.4z"/>
			</g>
		</g>
	</g>
	<g>
		<defs>
			<rect id="SVGID_31_" width="1370.7" height="759.7"/>
		</defs>
		<clipPath id="SVGID_32_">
			<use xlink:href="#SVGID_31_"  style="overflow:visible;"/>
		</clipPath>
		<g class="st17">
			<g class="st2">
				<path class="st3" d="M1302.8,452.1l0.2,4.1l-21,1.1l-2.2,0c1.6,0.6,2.9,1.6,3.9,3c0.9,1.3,1.5,2.9,1.7,4.8
					c0.1,1.9-0.3,3.5-1.3,4.7c-1,1.2-2.3,1.8-3.9,2l-13.4,0.7l-0.2-4.1l11.6-0.6c0.9-0.1,1.6-0.5,2.2-1.1c0.6-0.6,0.9-1.5,0.9-2.8
					c0-0.9-0.2-1.7-0.6-2.4c-0.3-0.8-0.8-1.4-1.3-2c-0.6-0.6-1.2-1-1.9-1.3s-1.5-0.5-2.4-0.4l-9,0.4l-0.2-4.1L1302.8,452.1z"/>
			</g>
		</g>
	</g>
	<g>
		<defs>
			<rect id="SVGID_33_" width="1370.7" height="759.7"/>
		</defs>
		<clipPath id="SVGID_34_">
			<use xlink:href="#SVGID_33_"  style="overflow:visible;"/>
		</clipPath>
		<g class="st18">
			<g class="st2">
				<path class="st19" d="M949.7,527.6l-1.4-3.9c2.3,0.3,4.6,0.5,6.9,0.8c2.3,0.2,4.6,0.5,6.9,0.8l14.1-15.3l1.4,3.9
					c-1.8,2-3.7,4.1-5.5,6.3c-1.8,2.2-3.8,4.1-5.9,5.8c1.3,0,2.7,0,4.1,0.1c1.4,0.1,2.8,0.2,4.2,0.4c1.4,0.2,2.8,0.4,4.2,0.6
					c1.4,0.2,2.8,0.4,4.1,0.5l1.4,3.9c-5.8-0.6-11.5-1.3-17.2-1.9C961.2,528.8,955.4,528.2,949.7,527.6z"/>
			</g>
		</g>
	</g>
	<g>
		<defs>
			<rect id="SVGID_35_" width="1370.7" height="759.7"/>
		</defs>
		<clipPath id="SVGID_36_">
			<use xlink:href="#SVGID_35_"  style="overflow:visible;"/>
		</clipPath>
		<g class="st20">
			<g class="st2">
				<path class="st19" d="M979.2,542.1c1.1-0.7,2.3-1.1,3.6-1.3c1.3-0.2,2.5-0.1,3.7,0.2c1.2,0.3,2.3,0.8,3.4,1.6
					c1.1,0.8,2,1.7,2.7,2.9s1.2,2.4,1.4,3.7c0.2,1.3,0.2,2.6-0.1,3.8c-0.3,1.2-0.8,2.3-1.5,3.4s-1.7,1.9-2.8,2.6
					c-1.2,0.7-2.4,1.1-3.6,1.3c-1.3,0.2-2.5,0.1-3.7-0.2c-1.2-0.3-2.4-0.8-3.4-1.6c-1.1-0.8-2-1.7-2.7-2.9c-0.7-1.2-1.2-2.4-1.4-3.7
					c-0.2-1.3-0.1-2.5,0.2-3.8c0.3-1.2,0.8-2.4,1.5-3.4C977.1,543.7,978.1,542.8,979.2,542.1z M981.3,545.6
					c-0.7,0.4-1.2,0.9-1.7,1.5s-0.7,1.3-0.9,2c-0.2,0.7-0.2,1.4-0.1,2.2c0.1,0.7,0.4,1.5,0.8,2.1c0.4,0.7,0.9,1.2,1.5,1.7
					c0.6,0.4,1.3,0.7,2,0.9c0.7,0.2,1.4,0.2,2.2,0.1s1.5-0.4,2.1-0.8s1.2-0.9,1.7-1.5c0.4-0.6,0.7-1.3,0.9-2
					c0.2-0.7,0.2-1.5,0.1-2.2c-0.1-0.7-0.4-1.5-0.8-2.1c-0.4-0.7-0.9-1.2-1.5-1.7s-1.3-0.7-2-0.9c-0.7-0.2-1.4-0.2-2.2-0.1
					C982.7,545,982,545.2,981.3,545.6z"/>
			</g>
		</g>
	</g>
	<g>
		<defs>
			<rect id="SVGID_37_" width="1370.7" height="759.7"/>
		</defs>
		<clipPath id="SVGID_38_">
			<use xlink:href="#SVGID_37_"  style="overflow:visible;"/>
		</clipPath>
		<g class="st21">
			<g class="st2">
				<path class="st19" d="M1003.4,589.6l-2.8-3l2.1-2l1.7-1.4c-1.6,0.6-3.2,0.7-4.9,0.3s-3.1-1.3-4.4-2.6c-1.3-1.4-2-2.9-2-4.4
					s0.5-2.9,1.7-4l9.7-9.2l2.8,3l-8.4,7.9c-0.6,0.7-0.9,1.4-1,2.3c-0.1,0.9,0.3,1.8,1.1,2.7c0.6,0.6,1.3,1.1,2,1.5
					c0.7,0.4,1.5,0.6,2.3,0.6c0.8,0.1,1.6,0,2.3-0.3c0.8-0.2,1.5-0.6,2.1-1.2l6.5-6.2l2.8,3L1003.4,589.6z"/>
			</g>
		</g>
	</g>
	<g>
		<defs>
			<rect id="SVGID_39_" width="1370.7" height="759.7"/>
		</defs>
		<clipPath id="SVGID_40_">
			<use xlink:href="#SVGID_39_"  style="overflow:visible;"/>
		</clipPath>
		<g class="st22">
			<g class="st2">
				<path class="st19" d="M1032.9,577.3c-0.2-0.4-0.3-0.7-0.4-1.1c-0.1-0.3-0.3-0.7-0.4-1.1c0.9-0.1,1.8-0.4,2.7-1
					c0.8-0.6,1.5-1.4,2-2.4c0.4,0.2,0.8,0.4,1.1,0.6c0.4,0.2,0.7,0.4,1.1,0.6c-0.6,1.3-1.5,2.2-2.5,3
					C1035.4,576.7,1034.2,577.1,1032.9,577.3z"/>
			</g>
		</g>
	</g>
	<g>
		<defs>
			<rect id="SVGID_41_" width="1370.7" height="759.7"/>
		</defs>
		<clipPath id="SVGID_42_">
			<use xlink:href="#SVGID_41_"  style="overflow:visible;"/>
		</clipPath>
		<g class="st23">
			<g class="st2">
				<path class="st19" d="M1045.7,601.2c-1.7-1-3.4-1.4-5-1c-1.6,0.3-2.9,1.2-3.7,2.7l-4.6,7.7l-3.5-2.1l9.5-15.9l3.1,1.8l-0.2,0.4
					c-0.3,0.7-0.7,1.4-0.9,1.9c-0.3,0.6-0.6,1.2-0.9,1.9c0.8-0.5,1.6-0.9,2.4-1.1c0.9-0.2,1.7-0.4,2.5-0.4s1.5,0,2.2,0.1
					s1.2,0.3,1.6,0.6L1045.7,601.2z"/>
			</g>
		</g>
	</g>
	<g>
		<defs>
			<rect id="SVGID_43_" width="1370.7" height="759.7"/>
		</defs>
		<clipPath id="SVGID_44_">
			<use xlink:href="#SVGID_43_"  style="overflow:visible;"/>
		</clipPath>
		<g class="st24">
			<g class="st2">
				<path class="st19" d="M1069.9,616.1c-2.4,0-4.8-0.1-7.1-0.1c-2.4,0-4.7-0.1-7.1-0.1c0.2,0.8,0.6,1.6,1.2,2.2
					c0.6,0.7,1.4,1.2,2.3,1.6c1.4,0.5,2.8,0.5,4.1-0.1l1.3,3.7c-1.1,0.5-2.2,0.7-3.3,0.8c-1.1,0.1-2.3-0.1-3.5-0.6
					c-1.3-0.5-2.4-1.2-3.3-2.1c-0.9-0.9-1.7-1.9-2.2-3.1c-0.5-1.1-0.8-2.4-0.8-3.6c-0.1-1.3,0.2-2.5,0.6-3.8
					c0.5-1.2,1.2-2.3,2.1-3.2c0.9-0.9,1.9-1.6,3.1-2.1c1.1-0.5,2.4-0.8,3.7-0.8c1.3,0,2.6,0.2,3.9,0.7c1,0.4,1.8,0.9,2.5,1.6
					c0.7,0.7,1.3,1.6,1.7,2.5c0.4,0.9,0.7,2,0.9,3.1C1070,613.7,1070.1,614.9,1069.9,616.1z M1063.3,609c-1.2-0.5-2.4-0.6-3.5-0.3
					c-1.1,0.3-2.1,0.8-2.8,1.7c-0.3,0.4-0.6,0.9-0.9,1.5c1.6,0,3.3,0.1,4.9,0.1c1.6,0,3.3,0,4.9,0.1c-0.2-0.7-0.5-1.3-1-1.8
					C1064.5,609.7,1064,609.3,1063.3,609z"/>
			</g>
		</g>
	</g>
	<g>
		<defs>
			<rect id="SVGID_45_" width="1370.7" height="759.7"/>
		</defs>
		<clipPath id="SVGID_46_">
			<use xlink:href="#SVGID_45_"  style="overflow:visible;"/>
		</clipPath>
		<g class="st25">
			<g class="st2">
				<path class="st19" d="M1105.7,602.8l4.1,0.3l-0.7,11.6l4.8,0.3l-0.3,4l-4.8-0.3l-0.9,14.9l-4.1-0.3l0.9-14.9l-4.1-0.3l0.3-4
					l4.1,0.3L1105.7,602.8z"/>
			</g>
		</g>
	</g>
	<g>
		<defs>
			<rect id="SVGID_47_" width="1370.7" height="759.7"/>
		</defs>
		<clipPath id="SVGID_48_">
			<use xlink:href="#SVGID_47_"  style="overflow:visible;"/>
		</clipPath>
		<g class="st26">
			<g class="st2">
				<path class="st19" d="M1121.8,596.9l4.1-0.5l2.4,20.9l0.1,2.2c0.5-1.7,1.4-3,2.7-4.1c1.3-1,2.8-1.7,4.7-2c1.9-0.2,3.5,0.1,4.7,1
					c1.2,0.9,2,2.1,2.2,3.8l1.5,13.3l-4.1,0.5l-1.3-11.5c-0.2-0.9-0.6-1.6-1.2-2.2c-0.6-0.6-1.6-0.8-2.8-0.7
					c-0.8,0.1-1.6,0.3-2.4,0.7s-1.4,0.9-1.9,1.5c-0.5,0.6-0.9,1.3-1.2,2c-0.3,0.8-0.4,1.6-0.3,2.4l1,8.9l-4.1,0.5L1121.8,596.9z"/>
			</g>
		</g>
	</g>
	<g>
		<defs>
			<rect id="SVGID_49_" width="1370.7" height="759.7"/>
		</defs>
		<clipPath id="SVGID_50_">
			<use xlink:href="#SVGID_49_"  style="overflow:visible;"/>
		</clipPath>
		<g class="st27">
			<g class="st2">
				<path class="st19" d="M1172.9,612.4c-1.9,1.5-3.7,3-5.6,4.4c-1.9,1.5-3.7,3-5.6,4.4c0.7,0.5,1.5,0.8,2.4,1s1.8,0.1,2.8-0.3
					c1.4-0.5,2.5-1.4,3.1-2.7l3.3,2c-0.5,1-1.2,1.9-2.1,2.7c-0.9,0.8-1.9,1.3-3.1,1.7c-1.3,0.4-2.6,0.6-3.9,0.5
					c-1.3-0.1-2.5-0.4-3.6-1c-1.1-0.6-2.1-1.3-3-2.3c-0.8-0.9-1.5-2.1-1.9-3.3c-0.4-1.2-0.6-2.5-0.4-3.8c0.1-1.3,0.5-2.5,1-3.6
					c0.6-1.1,1.3-2.1,2.3-2.9c1-0.9,2.1-1.5,3.4-1.9c1-0.3,2-0.4,3-0.3s2,0.4,2.9,0.8c0.9,0.5,1.8,1.1,2.7,1.9
					C1171.5,610.5,1172.2,611.4,1172.9,612.4z M1163.3,611.1c-1.3,0.4-2.2,1.1-2.9,2c-0.7,0.9-1.1,1.9-1.1,3.1
					c0,0.5,0.1,1.1,0.2,1.8c1.3-1,2.6-2,3.9-3.1c1.3-1,2.6-2,3.9-3.1c-0.6-0.4-1.2-0.7-1.9-0.8
					C1164.6,610.9,1164,610.9,1163.3,611.1z"/>
			</g>
		</g>
	</g>
	<g>
		<defs>
			<rect id="SVGID_51_" width="1370.7" height="759.7"/>
		</defs>
		<clipPath id="SVGID_52_">
			<use xlink:href="#SVGID_51_"  style="overflow:visible;"/>
		</clipPath>
		<g class="st28">
			<g class="st2">
				<path class="st19" d="M1219.8,585.3c0.8,1,1.4,2.2,1.7,3.4c0.3,1.2,0.4,2.5,0.3,3.7c-0.2,1.2-0.6,2.4-1.2,3.6
					c-0.6,1.2-1.5,2.1-2.6,3c-0.8,0.6-1.5,1.1-2.3,1.3c-0.8,0.3-1.4,0.5-2,0.6s-1.1,0.1-1.5,0.1c-0.4,0-0.6-0.1-0.7-0.2l0.3,0.4
					l1,1.2l-2.8,2.2l-22.7-29.2l3.2-2.5l11.7,15.1c0.1,0.2,0.2,0.5,0.3,0.8s0.2,0.5,0.3,0.8c-0.1-0.1,0-0.3,0-0.8
					c0.1-0.4,0.3-0.9,0.5-1.5c0.2-0.6,0.6-1.2,1-1.9c0.4-0.7,1-1.3,1.7-1.8c1.1-0.8,2.3-1.4,3.5-1.8c1.3-0.3,2.5-0.4,3.8-0.3
					c1.2,0.2,2.4,0.5,3.5,1.2C1218,583.5,1218.9,584.3,1219.8,585.3z M1216.5,587.9c-1-1.3-2.3-2-3.8-2.2c-1.5-0.2-2.9,0.2-4.3,1.3
					c-1.4,1-2.1,2.3-2.3,3.8c-0.2,1.5,0.2,2.9,1.2,4.2c1,1.3,2.2,2,3.8,2.2s3-0.2,4.3-1.3c1.4-1,2.1-2.3,2.3-3.9
					C1217.9,590.6,1217.5,589.2,1216.5,587.9z"/>
			</g>
		</g>
	</g>
	<g>
		<defs>
			<rect id="SVGID_53_" width="1370.7" height="759.7"/>
		</defs>
		<clipPath id="SVGID_54_">
			<use xlink:href="#SVGID_53_"  style="overflow:visible;"/>
		</clipPath>
		<g class="st29">
			<g class="st2">
				<path class="st19" d="M1239,562c-0.8,2.2-1.6,4.5-2.4,6.7c-0.8,2.2-1.6,4.5-2.4,6.7c0.8,0.1,1.7-0.1,2.5-0.4
					c0.8-0.3,1.6-0.9,2.2-1.7c1-1.2,1.4-2.4,1.2-3.9l3.9,0c0.1,1.2,0,2.3-0.4,3.4c-0.3,1.1-0.9,2.1-1.7,3.1
					c-0.9,1.1-1.9,1.9-3.1,2.5c-1.2,0.6-2.4,0.9-3.6,1c-1.3,0.1-2.5,0-3.7-0.4c-1.2-0.4-2.3-1-3.4-1.9c-1-0.9-1.8-1.9-2.4-3
					s-0.9-2.4-1-3.6c-0.1-1.2,0.1-2.5,0.4-3.7c0.4-1.2,1-2.4,1.9-3.4c0.7-0.8,1.5-1.4,2.4-1.8c0.9-0.4,1.9-0.7,2.9-0.8
					s2.1,0,3.2,0.2C1236.8,561.1,1237.9,561.5,1239,562z M1230.2,565.9c-0.9,1-1.3,2.1-1.5,3.2c-0.1,1.2,0.1,2.2,0.6,3.2
					c0.3,0.4,0.6,0.9,1.1,1.4c0.6-1.5,1.1-3.1,1.7-4.6c0.6-1.5,1.1-3.1,1.7-4.6c-0.7,0-1.4,0.1-2,0.3
					C1231.2,565,1230.7,565.4,1230.2,565.9z"/>
			</g>
		</g>
	</g>
	<g>
		<defs>
			<rect id="SVGID_55_" width="1370.7" height="759.7"/>
		</defs>
		<clipPath id="SVGID_56_">
			<use xlink:href="#SVGID_55_"  style="overflow:visible;"/>
		</clipPath>
		<g class="st30">
			<g class="st2">
				<path class="st19" d="M1245,541.5c0.3,0.6,0.5,1.2,0.7,1.8c0.2,0.6,0.5,1.2,0.7,1.8c-0.2,0.1-0.6,0.2-1.1,0.5
					c-0.5,0.3-1,0.7-1.4,1.4c-0.4,0.6-0.5,1.1-0.4,1.6c0.1,0.4,0.4,0.8,0.9,1c0.4,0.1,0.8,0.1,1.2-0.1c0.4-0.2,0.9-0.5,1.4-0.9
					c0.5-0.4,1-0.8,1.6-1.2s1.2-0.7,1.9-1c0.7-0.2,1.4-0.3,2.1-0.3c0.8,0,1.6,0.3,2.4,0.9c0.4,0.2,0.8,0.6,1.3,1.1
					c0.5,0.5,0.8,1.1,1.1,1.8c0.3,0.7,0.4,1.5,0.3,2.5s-0.4,1.9-1.1,3.1c-0.6,1-1.4,1.9-2.3,2.7s-1.9,1.2-2.8,1.4
					c-0.2-0.6-0.4-1.2-0.6-1.8c-0.2-0.6-0.4-1.2-0.6-1.8c0.8-0.4,1.4-0.7,1.8-1c0.4-0.3,0.9-0.8,1.3-1.5c0,0,0.1-0.1,0.2-0.3
					c0.1-0.2,0.2-0.4,0.2-0.7c0-0.3,0-0.6-0.1-0.9c-0.1-0.3-0.3-0.6-0.7-0.9c-0.5-0.3-1-0.4-1.4-0.3c-0.5,0.1-0.9,0.4-1.4,0.8
					c-0.5,0.4-1,0.8-1.5,1.3c-0.5,0.5-1.1,0.9-1.8,1.2c-0.6,0.3-1.4,0.5-2.1,0.4c-0.8,0-1.7-0.3-2.7-0.9c-0.9-0.5-1.5-1.1-1.9-1.8
					c-0.4-0.7-0.6-1.4-0.7-2.1c-0.1-0.7,0-1.4,0.2-2.1c0.2-0.7,0.4-1.3,0.7-1.7c0.2-0.3,0.4-0.6,0.7-1c0.3-0.4,0.7-0.7,1.1-1.1
					c0.4-0.3,0.8-0.6,1.3-0.9C1244,541.8,1244.5,541.6,1245,541.5z"/>
			</g>
		</g>
	</g>
	<g>
		<defs>
			<rect id="SVGID_57_" width="1370.7" height="759.7"/>
		</defs>
		<clipPath id="SVGID_58_">
			<use xlink:href="#SVGID_57_"  style="overflow:visible;"/>
		</clipPath>
		<g class="st31">
			<g class="st2">
				<path class="st19" d="M1238.4,523.7l1.6-3.8l10.7,4.5l1.9-4.5l3.7,1.6l-1.9,4.5l13.8,5.9l-1.6,3.8l-13.8-5.9l-1.6,3.8l-3.7-1.6
					l1.6-3.8L1238.4,523.7z"/>
			</g>
		</g>
	</g>
	<g>
		<defs>
			<rect id="SVGID_59_" width="1370.7" height="759.7"/>
		</defs>
		<clipPath id="SVGID_60_">
			<use xlink:href="#SVGID_59_"  style="overflow:visible;"/>
		</clipPath>
		<g class="st32">
			<g class="st2">
				<path class="st19" d="M1237.8,506.7l1.1-3.9l27.7,8l-1.1,3.9L1237.8,506.7z M1272.8,516.5c-0.6,0.4-1.3,0.4-2,0.2
					c-0.7-0.2-1.2-0.6-1.6-1.3c-0.3-0.6-0.4-1.3-0.2-1.9c0.2-0.6,0.6-1.1,1.2-1.5c0.6-0.4,1.3-0.5,2-0.2c0.7,0.2,1.3,0.6,1.6,1.3
					c0.3,0.6,0.4,1.3,0.2,1.9C1273.8,515.6,1273.4,516.1,1272.8,516.5z"/>
			</g>
		</g>
	</g>
	<g>
		<defs>
			<rect id="SVGID_61_" width="1370.7" height="759.7"/>
		</defs>
		<clipPath id="SVGID_62_">
			<use xlink:href="#SVGID_61_"  style="overflow:visible;"/>
		</clipPath>
		<path class="st33" d="M413.8,774.2H-14.8V532.3l0.6,0.3C8.9,524,67.9,533.5,87.2,549c11.7,9.4,20.2,22.2,31.3,32.3
			c13.5,12.1,30.3,19.9,48.3,22.3c19.4,2.5,39-1.5,58.5-1.5s40.9,5,52.6,20.6c13.2,17.7,12.9,46.9,33.4,55.3
			c6.7,2.8,14.3,2.4,21.5,2.8C369.3,683,402.6,734.4,413.8,774.2z"/>
	</g>
	<g>
		<defs>
			<rect id="SVGID_63_" width="1370.7" height="759.7"/>
		</defs>
		<clipPath id="SVGID_64_">
			<use xlink:href="#SVGID_63_"  style="overflow:visible;"/>
		</clipPath>
		<path class="st34" d="M1238.9,28.9c-0.1,0.6-0.8,3.5-0.9,3.9l-0.3,1.2c-0.2,1.1-0.5,2.2-0.7,3.2l7.9,6.5l1.1-0.3
			c0.8-0.2,1.5-0.4,2.3-0.6l1-0.3c2.3-1,4.5-1.9,6.6-3.1c1.6-2.1,3.1-4.2,4.6-6.3l0.5-0.8c0.5-4.7,0.7-9.5,0.6-14.2
			c-0.1-1.5,0.2-3,0.7-4.5c-0.3-0.3-0.6-0.5-1-0.7c-2.7-1.6-6.2-1.4-9.1-0.2c-2.8,1.4-5.4,3.1-7.7,5.3c-1.2,1.1-2.5,2.1-3.7,3.3
			C1240.2,23.8,1239.5,26.3,1238.9,28.9z"/>
	</g>
	<g>
		<defs>
			<rect id="SVGID_65_" width="1370.7" height="759.7"/>
		</defs>
		<clipPath id="SVGID_66_">
			<use xlink:href="#SVGID_65_"  style="overflow:visible;"/>
		</clipPath>
		<path class="st35" d="M1204.7,28.3l-0.4,2l-0.1,0.6l-0.3,1.7l4,3.3l0.6-0.1l1.2-0.3l0.5-0.2c1.2-0.5,2.3-1,3.4-1.5
			c0.8-1,1.6-2.1,2.3-3.2l0.3-0.4c0.3-2.4,0.4-4.8,0.3-7.2c0-0.8,0.1-1.5,0.3-2.3c-0.2-0.1-0.3-0.3-0.5-0.4
			c-1.4-0.8-3.1-0.8-4.6-0.1c-1.4,0.7-2.8,1.6-3.9,2.7c-0.6,0.5-1.3,1.1-1.9,1.7C1205.3,25.7,1205,27,1204.7,28.3z"/>
	</g>
	<g>
		<defs>
			<rect id="SVGID_67_" width="1370.7" height="759.7"/>
		</defs>
		<clipPath id="SVGID_68_">
			<use xlink:href="#SVGID_67_"  style="overflow:visible;"/>
		</clipPath>
		<path class="st36" d="M1286.7,59.7l0.8-1.9l0.2-0.6l0.6-1.6l-3.4-3.9h-0.6l-1.2,0.1l-0.5,0.1c-1.2,0.3-2.4,0.6-3.6,1
			c-1,0.9-1.9,1.8-2.8,2.8l-0.3,0.4c-0.6,2.3-1.1,4.7-1.4,7.1c-0.1,0.8-0.3,1.5-0.7,2.2c0.1,0.2,0.3,0.3,0.4,0.4
			c1.3,1,3,1.3,4.5,0.8c1.5-0.4,3-1.1,4.3-2c0.7-0.4,1.4-0.9,2.1-1.3C1285.7,62.1,1286.2,60.9,1286.7,59.7z"/>
	</g>
	<g>
		<defs>
			<rect id="SVGID_69_" width="1370.7" height="759.7"/>
		</defs>
		<clipPath id="SVGID_70_">
			<use xlink:href="#SVGID_69_"  style="overflow:visible;"/>
		</clipPath>
		<path class="st37" d="M1298.2,103.3l-0.4,2l-0.1,0.6l-0.3,1.7l4,3.3l0.6-0.1l1.2-0.3l0.5-0.2c1.2-0.5,2.3-1,3.4-1.6
			c0.8-1,1.6-2.1,2.3-3.2l0.3-0.4c0.3-2.4,0.4-4.8,0.3-7.2c0-0.8,0.1-1.5,0.3-2.3c-0.2-0.1-0.3-0.3-0.5-0.4
			c-1.4-0.8-3.1-0.8-4.6-0.1c-1.4,0.7-2.8,1.6-3.9,2.7c-0.6,0.5-1.3,1.1-1.9,1.7C1298.8,100.7,1298.4,102,1298.2,103.3z"/>
	</g>
	<g>
		<defs>
			<rect id="SVGID_71_" width="1370.7" height="759.7"/>
		</defs>
		<clipPath id="SVGID_72_">
			<use xlink:href="#SVGID_71_"  style="overflow:visible;"/>
		</clipPath>
		<path class="st38" d="M1326.5,131.6l-0.4,2l-0.1,0.6l-0.3,1.7l4,3.3l0.6-0.1l1.2-0.3l0.5-0.2c1.2-0.5,2.3-1,3.4-1.6
			c0.8-1,1.6-2.1,2.3-3.2l0.3-0.4c0.3-2.4,0.4-4.8,0.3-7.2c0-0.8,0.1-1.5,0.3-2.3c-0.2-0.1-0.3-0.3-0.5-0.4
			c-1.4-0.8-3.1-0.8-4.6-0.1c-1.4,0.7-2.8,1.6-3.9,2.7c-0.6,0.5-1.3,1.1-1.9,1.7C1327.1,129,1326.8,130.3,1326.5,131.6z"/>
	</g>
	<g>
		<defs>
			<rect id="SVGID_73_" width="1370.7" height="759.7"/>
		</defs>
		<clipPath id="SVGID_74_">
			<use xlink:href="#SVGID_73_"  style="overflow:visible;"/>
		</clipPath>
		<path class="st39" d="M1244.8,111.8c0.4-1.3,0.9-2.6,1.4-3.8c-2.6-3.3-5-6.7-7-10.4c-1.7,0.2-3.4,0.7-4.9,1.6
			c-2.1,6.6-4.8,13.1-7.9,19.2l2.5,0.9c2,0.7,4.1,1.4,6.1,1.9c1,0.3,2,0.5,3,0.8l0.4,0.1c1,0.2,2.1,0.3,3.1,0.5
			c0.4-0.5,0.8-1.1,1.1-1.7C1244,118.1,1243.9,114.8,1244.8,111.8z"/>
	</g>
	<g>
		<defs>
			<rect id="SVGID_75_" width="1370.7" height="759.7"/>
		</defs>
		<clipPath id="SVGID_76_">
			<use xlink:href="#SVGID_75_"  style="overflow:visible;"/>
		</clipPath>
		<path class="st40" d="M1283.3,132.2c-3.1,0.6-5.7,2.6-8.6,3.8c-1.3,0.5-2.6,0.8-3.9,1.2c-0.5,2-1.1,4-1.8,6
			c3.1,2.1,6.2,4.3,9.3,6.5l1.4-0.4l0.1-0.1c2.9-3.5,5.8-6.9,8.7-10.1c-0.1-0.3-0.2-0.6-0.4-1c-0.4-0.9-0.8-1.9-1.2-2.8l-0.2-0.4
			c-0.5-0.9-1-1.9-1.5-2.8C1284.7,132,1284,132.1,1283.3,132.2z"/>
	</g>
	<g>
		<defs>
			<rect id="SVGID_77_" width="1370.7" height="759.7"/>
		</defs>
		<clipPath id="SVGID_78_">
			<use xlink:href="#SVGID_77_"  style="overflow:visible;"/>
		</clipPath>
		<path class="st41" d="M1327.8,100.9c2.1-0.1,4.2-0.2,6.2-0.2c1.4,0,2.8,0,4.2,0h1.2c1.3-0.2,2.6-0.2,3.8-0.4
			c0.4-0.1,0.9-0.2,1.3-0.3l0.5-0.2l0.2-0.2l0.6-0.8l0.1-0.1c0.4-1.9,0.6-3.9,1.1-5.8c0.6-2.2,1.7-4.2,2.2-6.4s0.2-4.8-1.5-6.3
			c-0.6-0.5-1.4-0.9-2.2-1.1c-6.1-1.9-12.8,2.5-15.6,8.3C1328,91.5,1327.6,96.2,1327.8,100.9z"/>
	</g>
	<g>
		<defs>
			<rect id="SVGID_79_" width="1370.7" height="759.7"/>
		</defs>
		<clipPath id="SVGID_80_">
			<use xlink:href="#SVGID_79_"  style="overflow:visible;"/>
		</clipPath>
		<path class="st42" d="M1262.6,89L1262.6,89h1c0.9-0.2,1.9-0.2,2.8-0.3c0.3-0.1,0.7-0.1,1-0.2l0.4-0.2l0.1-0.1l0.4-0.6l0.1-0.1
			c0.3-1.4,0.4-2.9,0.8-4.3c0.4-1.6,1.3-3.1,1.6-4.8c0.5-1.6,0.1-3.4-1.1-4.7c-0.5-0.4-1-0.7-1.6-0.8c-0.4-0.1-0.9-0.2-1.3-0.3
			C1265.5,78.2,1264.2,83.6,1262.6,89z"/>
	</g>
	<g>
		<defs>
			<rect id="SVGID_81_" width="1370.7" height="759.7"/>
		</defs>
		<clipPath id="SVGID_82_">
			<use xlink:href="#SVGID_81_"  style="overflow:visible;"/>
		</clipPath>
		<path class="st43" d="M1323.6,180.4L1323.6,180.4h1c0.9-0.2,1.9-0.2,2.8-0.3c0.3-0.1,0.7-0.1,1-0.2l0.4-0.2l0.1-0.1l0.4-0.6
			l0.1-0.1c0.3-1.4,0.4-2.9,0.8-4.3c0.4-1.6,1.3-3.1,1.6-4.8c0.5-1.6,0.1-3.4-1.1-4.7c-0.5-0.4-1-0.7-1.6-0.8
			c-0.4-0.1-0.9-0.2-1.3-0.3C1326.6,169.5,1325.2,175,1323.6,180.4z"/>
	</g>
	<g>
		<defs>
			<rect id="SVGID_83_" width="1370.7" height="759.7"/>
		</defs>
		<clipPath id="SVGID_84_">
			<use xlink:href="#SVGID_83_"  style="overflow:visible;"/>
		</clipPath>
		<path class="st44" d="M1296.6,20.2c-0.7,0.9-1.4,1.9-1.9,3c-0.6,1.3-1.1,2.6-1.4,4c1.9,2.4,3.9,4.8,6,7.1c0.6,0.7,1.2,1.5,1.7,2.3
			h1.9h0.3l10-12.2c0.3-0.7,0.5-1.4,0.6-2.1c0.3-1.2,0.3-2.6,0-3.8c-1.1-0.5-2.2-1.1-3.1-1.9l-1.2-1
			C1305.5,17.9,1301.2,19.4,1296.6,20.2z"/>
	</g>
	<g>
		<defs>
			<rect id="SVGID_85_" width="1370.7" height="759.7"/>
		</defs>
		<clipPath id="SVGID_86_">
			<use xlink:href="#SVGID_85_"  style="overflow:visible;"/>
		</clipPath>
		<path class="st45" d="M1308.8,82.8c0.4-1.9,0.6-3.9,1.1-5.8s1.5-3.9,2-5.9c-3.1-2.7-6.3-5.3-9.4-8c-4.3,1.3-7.8,4.3-9.7,8.3
			c-1.2,2.6-1.9,5.4-2.1,8.2c0.8,0.7,1.7,1.3,2.5,2c1.2,1,2.3,2.1,3.3,3.3h0.3c1.4,0,2.8,0,4.2,0h1.2c1.3-0.2,2.6-0.2,3.8-0.4
			c0.4-0.1,0.9-0.2,1.3-0.3l0.5-0.2l0.2-0.2l0.6-0.8L1308.8,82.8z"/>
	</g>
	<g>
		<defs>
			<rect id="SVGID_87_" width="1370.7" height="759.7"/>
		</defs>
		<clipPath id="SVGID_88_">
			<use xlink:href="#SVGID_87_"  style="overflow:visible;"/>
		</clipPath>
		<path class="st46" d="M1217.6,93.6c0.4-1.9,0.6-3.9,1.1-5.8s1.5-3.9,2-5.9c-3.1-2.7-6.3-5.3-9.4-8c-4.3,1.3-7.8,4.3-9.7,8.3
			c-1.2,2.6-1.9,5.4-2.1,8.2c0.8,0.7,1.7,1.3,2.5,2c1.2,1,2.3,2.1,3.3,3.3h0.3c1.4,0,2.8,0,4.2,0h1.2c1.3-0.2,2.6-0.2,3.8-0.4
			c0.4-0.1,0.9-0.2,1.3-0.3l0.5-0.2l0.2-0.2l0.6-0.8L1217.6,93.6z"/>
	</g>
	<g>
		<defs>
			<rect id="SVGID_89_" width="1370.7" height="759.7"/>
		</defs>
		<clipPath id="SVGID_90_">
			<use xlink:href="#SVGID_89_"  style="overflow:visible;"/>
		</clipPath>
		<path class="st47" d="M1340.5,24.3c-3.8,1.5-6.9,4.3-8.7,8c-1.2,2.6-1.9,5.4-2.1,8.2c0.8,0.7,1.7,1.3,2.5,2
			c0.7,0.6,1.4,1.2,2.1,1.9c1.8-0.3,3.6-0.7,5.4-1.1c1.1-0.2,2.1-0.5,3.2-0.8c0.9-4.4,2.2-8.8,3.9-12.9L1340.5,24.3z"/>
	</g>
	<g>
		<defs>
			<rect id="SVGID_91_" width="1370.7" height="759.7"/>
		</defs>
		<clipPath id="SVGID_92_">
			<use xlink:href="#SVGID_91_"  style="overflow:visible;"/>
		</clipPath>
		<path class="st48" d="M1174.6,45.6c0.4-1.9,0.6-3.9,1.1-5.8s1.5-3.9,2-5.9c-3.1-2.7-6.3-5.3-9.4-8c-4.3,1.3-7.8,4.3-9.7,8.3
			c-1.2,2.6-1.9,5.4-2.1,8.2c0.8,0.7,1.7,1.3,2.5,2c1.2,1,2.3,2.1,3.3,3.3h0.3c1.4,0,2.8,0,4.2,0h1.2c1.3-0.2,2.6-0.2,3.8-0.4
			c0.4-0.1,0.9-0.2,1.3-0.3l0.5-0.2l0.2-0.2l0.6-0.8L1174.6,45.6z"/>
	</g>
</g>
</svg>
