<?xml version="1.0" encoding="utf-8"?>
<!-- Generator: Adobe Illustrator 21.1.0, SVG Export Plug-In . SVG Version: 6.00 Build 0)  -->
<svg version="1.1" id="Layer_1" xmlns="http://www.w3.org/2000/svg" xmlns:xlink="http://www.w3.org/1999/xlink" x="0px" y="0px"
	 viewBox="0 0 1150 800" style="enable-background:new 0 0 1150 800;" xml:space="preserve">
<style type="text/css">
	.st0{clip-path:url(#SVGID_2_);fill:#849ED1;}
	.st1{clip-path:url(#SVGID_4_);fill:#FFFFFF;}
	.st2{clip-path:url(#SVGID_6_);fill:#FFFFFF;}
	.st3{clip-path:url(#SVGID_8_);fill:#FFFFFF;}
	.st4{clip-path:url(#SVGID_10_);fill:#FFFFFF;}
	.st5{clip-path:url(#SVGID_12_);fill:#FFFFFF;}
	.st6{clip-path:url(#SVGID_14_);fill:#FFFFFF;}
	.st7{clip-path:url(#SVGID_16_);fill:#FFFFFF;}
	.st8{clip-path:url(#SVGID_18_);fill:#FFFFFF;}
	.st9{clip-path:url(#SVGID_20_);fill:#FFFFFF;}
	.st10{clip-path:url(#SVGID_22_);fill:#FFFFFF;}
	.st11{clip-path:url(#SVGID_24_);fill:#FFFFFF;}
	.st12{clip-path:url(#SVGID_26_);fill:#FFFFFF;}
	.st13{clip-path:url(#SVGID_28_);fill:#FFFFFF;}
	.st14{clip-path:url(#SVGID_30_);fill:#FFFFFF;}
	.st15{clip-path:url(#SVGID_32_);fill:#FFFFFF;}
	.st16{clip-path:url(#SVGID_34_);fill:#F1E6A9;}
	.st17{clip-path:url(#SVGID_36_);fill:#F1E6A9;}
	.st18{clip-path:url(#SVGID_38_);fill:#F1E6A9;}
	.st19{clip-path:url(#SVGID_40_);fill:#F1E6A9;}
	.st20{clip-path:url(#SVGID_42_);fill:#F1E6A9;}
	.st21{clip-path:url(#SVGID_44_);fill:#F1E6A9;}
	.st22{clip-path:url(#SVGID_46_);fill:#F1E6A9;}
	.st23{clip-path:url(#SVGID_48_);fill:#F1E6A9;}
	.st24{clip-path:url(#SVGID_50_);fill:#F1E6A9;}
	.st25{clip-path:url(#SVGID_52_);fill:#F1E6A9;}
	.st26{clip-path:url(#SVGID_54_);fill:#F1E6A9;}
	.st27{clip-path:url(#SVGID_56_);fill:#F1E6A9;}
	.st28{clip-path:url(#SVGID_58_);fill:#F1E6A9;}
	.st29{clip-path:url(#SVGID_60_);fill:#F1E6A9;}
	.st30{clip-path:url(#SVGID_62_);fill:#F1E6A9;}
	.st31{clip-path:url(#SVGID_64_);fill:#F1E6A9;}
	.st32{clip-path:url(#SVGID_66_);fill:#262262;}
	.st33{fill:#5A76B9;}
	.st34{font-family:'JosefinSans-Bold';}
	.st35{font-size:42.34px;}
	.st36{font-size:42.5282px;}
	.st37{font-size:42.3385px;}
	.st38{font-size:42.3417px;}
	.st39{font-size:42.3415px;}
	.st40{font-size:42.5111px;}
	.st41{font-size:42.2404px;}
	.st42{font-size:42.4689px;}
	.st43{font-size:42.1746px;}
	.st44{font-size:42.4737px;}
	.st45{font-size:42.4352px;}
	.st46{font-size:42.2217px;}
	.st47{font-size:42.332px;}
	.st48{font-size:42.3418px;}
</style>
<title>background</title>
<g>
	<g>
		<defs>
			<rect id="SVGID_1_" x="-108.4" width="1366.8" height="800"/>
		</defs>
		<clipPath id="SVGID_2_">
			<use xlink:href="#SVGID_1_"  style="overflow:visible;"/>
		</clipPath>
		<rect class="st0" width="1150" height="800"/>
	</g>
	<g>
		<defs>
			<rect id="SVGID_3_" x="-108.4" width="1366.8" height="800"/>
		</defs>
		<clipPath id="SVGID_4_">
			<use xlink:href="#SVGID_3_"  style="overflow:visible;"/>
		</clipPath>
		<path class="st1" d="M160.2,639.1l-1.8-3.6l-0.6-1.1l-1.6-2.9H146l-0.7,1c-0.5,0.6-0.9,1.3-1.3,1.9l-0.5,0.9
			c-1.1,2.2-2.2,4.3-3.2,6.6c0.1,2.6,0.2,5.2,0.5,7.8c0,0.3,0.1,0.6,0.1,1c2.6,4,5.5,7.7,8.6,11.3c1,1.1,1.8,2.4,2.3,3.9
			c0.4,0,0.8,0,1.2-0.1c3.1-0.4,5.7-2.8,7.2-5.6c1.3-2.8,2.2-5.9,2.6-9c0.3-1.6,0.6-3.2,0.8-4.9
			C162.5,643.8,161.3,641.4,160.2,639.1z"/>
	</g>
	<g>
		<defs>
			<rect id="SVGID_5_" x="-108.4" width="1366.8" height="800"/>
		</defs>
		<clipPath id="SVGID_6_">
			<use xlink:href="#SVGID_5_"  style="overflow:visible;"/>
		</clipPath>
		<path class="st2" d="M89.6,687.6l-0.9-1.8l-0.3-0.6l-0.8-1.5h-5.2l-0.4,0.5c-0.2,0.3-0.5,0.7-0.7,1l-0.3,0.4
			c-0.6,1.1-1.1,2.2-1.6,3.3c0,1.3,0.1,2.7,0.2,4c0,0.2,0,0.3,0,0.5c1.3,2,2.8,3.9,4.4,5.8c0.5,0.6,0.9,1.3,1.2,2c0.2,0,0.4,0,0.6,0
			c1.6-0.3,2.9-1.4,3.6-2.8c0.7-1.4,1.1-3,1.3-4.6c0.2-0.8,0.3-1.7,0.4-2.5C90.7,690,90.2,688.8,89.6,687.6z"/>
	</g>
	<g>
		<defs>
			<rect id="SVGID_7_" x="-108.4" width="1366.8" height="800"/>
		</defs>
		<clipPath id="SVGID_8_">
			<use xlink:href="#SVGID_7_"  style="overflow:visible;"/>
		</clipPath>
		<path class="st3" d="M56.5,770.4l0.6,1.9l0.2,0.6l0.5,1.6l5.2,0.8l0.4-0.4c0.3-0.3,0.5-0.6,0.8-0.9l0.3-0.4c0.8-1,1.5-2,2.1-3
			c0.2-1.3,0.3-2.6,0.4-4c0-0.2,0-0.3,0-0.5c-1-2.2-2.1-4.3-3.4-6.4c-0.4-0.7-0.7-1.4-0.9-2.1c-0.2,0-0.4-0.1-0.6-0.1
			c-1.6,0.1-3.1,0.9-4,2.2s-1.6,2.8-2,4.3c-0.3,0.8-0.5,1.6-0.8,2.4C55.7,767.9,56.1,769.1,56.5,770.4z"/>
	</g>
	<g>
		<defs>
			<rect id="SVGID_9_" x="-108.4" width="1366.8" height="800"/>
		</defs>
		<clipPath id="SVGID_10_">
			<use xlink:href="#SVGID_9_"  style="overflow:visible;"/>
		</clipPath>
		<path class="st4" d="M176.2,607.9l-0.9-1.8l-0.3-0.6l-0.8-1.5H169l-0.4,0.5c-0.2,0.3-0.5,0.7-0.7,1l-0.3,0.4
			c-0.6,1.1-1.1,2.2-1.6,3.3c0,1.3,0.1,2.7,0.2,4c0,0.2,0,0.3,0,0.5c1.3,2,2.8,3.9,4.4,5.8c0.5,0.6,0.9,1.3,1.2,2c0.2,0,0.4,0,0.6,0
			c1.6-0.3,2.9-1.4,3.6-2.8c0.7-1.4,1.1-3,1.3-4.6c0.1-0.8,0.3-1.7,0.4-2.5C177.3,610.3,176.8,609.1,176.2,607.9z"/>
	</g>
	<g>
		<defs>
			<rect id="SVGID_11_" x="-108.4" width="1366.8" height="800"/>
		</defs>
		<clipPath id="SVGID_12_">
			<use xlink:href="#SVGID_11_"  style="overflow:visible;"/>
		</clipPath>
		<path class="st5" d="M95.5,607.9l-0.9-1.8l-0.3-0.6l-0.8-1.5h-5.2l-0.4,0.5c-0.2,0.3-0.5,0.7-0.7,1l-0.3,0.4
			c-0.6,1.1-1.1,2.2-1.6,3.3c0,1.3,0.1,2.7,0.2,4c0,0.2,0,0.3,0,0.5c1.3,2,2.8,3.9,4.4,5.8c0.5,0.6,0.9,1.3,1.2,2c0.2,0,0.4,0,0.6,0
			c1.6-0.3,2.9-1.4,3.6-2.8c0.7-1.5,1.2-3,1.4-4.7c0.2-0.8,0.3-1.7,0.4-2.5C96.7,610.3,96.1,609.1,95.5,607.9z"/>
	</g>
	<g>
		<defs>
			<rect id="SVGID_13_" x="-108.4" width="1366.8" height="800"/>
		</defs>
		<clipPath id="SVGID_14_">
			<use xlink:href="#SVGID_13_"  style="overflow:visible;"/>
		</clipPath>
		<path class="st6" d="M111.5,637.5c0.6,1.2,0.9,2.5,1.4,3.8c4.1,0.9,8.1,2.1,12,3.6c1.2-1.3,2.2-2.8,2.8-4.4
			c-2.6-6.5-4.6-13.1-6.1-19.9l-2.5,0.9c-2,0.7-4,1.5-6,2.4c-0.9,0.4-1.9,0.8-2.8,1.3l-0.4,0.2c-0.9,0.5-1.8,1.1-2.7,1.6
			c0,0.7,0.1,1.3,0.2,2C108.1,632.1,110.2,634.6,111.5,637.5z"/>
	</g>
	<g>
		<defs>
			<rect id="SVGID_15_" x="-108.4" width="1366.8" height="800"/>
		</defs>
		<clipPath id="SVGID_16_">
			<use xlink:href="#SVGID_15_"  style="overflow:visible;"/>
		</clipPath>
		<path class="st7" d="M141.3,611.3c2-2.4,2.7-5.6,4.2-8.4c0.6-1.2,1.4-2.3,2.2-3.4c-0.9-1.9-1.7-3.8-2.4-5.7
			c-3.8,0.3-7.6,0.7-11.3,0.9c-0.3,0.4-0.5,0.8-0.8,1.2c0,0,0,0.1,0,0.2c0,4.5-0.1,9-0.3,13.4l0.9,0.5c0.9,0.5,1.8,1,2.7,1.4
			l0.4,0.2c1,0.4,2,0.8,2.9,1.2C140.4,612.3,140.9,611.8,141.3,611.3z"/>
	</g>
	<g>
		<defs>
			<rect id="SVGID_17_" x="-108.4" width="1366.8" height="800"/>
		</defs>
		<clipPath id="SVGID_18_">
			<use xlink:href="#SVGID_17_"  style="overflow:visible;"/>
		</clipPath>
		<path class="st8" d="M126.8,663.7c-1.5,1.4-3.1,2.8-4.7,4.1c-1.1,0.9-2.2,1.8-3.3,2.7l-0.9,0.8c-0.8,1-1.8,1.8-2.7,2.8
			c-0.3,0.3-0.6,0.7-0.8,1.1l-0.2,0.5v0.2c0,0.2,0,0.5,0.1,1v0.1c0.9,1.8,2.1,3.4,2.9,5.2c0.9,2.1,1.4,4.3,2.4,6.3s2.9,3.8,5.2,3.9
			c0.8,0,1.6-0.2,2.4-0.5c5.9-2.4,8.3-10,6.8-16.3C132.7,671.1,130,667.2,126.8,663.7z"/>
	</g>
	<g>
		<defs>
			<rect id="SVGID_19_" x="-108.4" width="1366.8" height="800"/>
		</defs>
		<clipPath id="SVGID_20_">
			<use xlink:href="#SVGID_19_"  style="overflow:visible;"/>
		</clipPath>
		<path class="st9" d="M184.8,631.4L184.8,631.4l-0.8,0.7c-0.6,0.7-1.4,1.3-2,2c-0.2,0.3-0.4,0.5-0.6,0.8l-0.2,0.3v0.2
			c0,0.2,0,0.4,0,0.7v0.1c0.7,1.3,1.5,2.5,2.1,3.9c0.7,1.5,1,3.2,1.8,4.7c0.7,1.6,2.1,2.7,3.8,2.9c0.6,0,1.2-0.1,1.8-0.4
			c0.4-0.2,0.8-0.4,1.2-0.6C189.4,641.7,186.9,636.6,184.8,631.4z"/>
	</g>
	<g>
		<defs>
			<rect id="SVGID_21_" x="-108.4" width="1366.8" height="800"/>
		</defs>
		<clipPath id="SVGID_22_">
			<use xlink:href="#SVGID_21_"  style="overflow:visible;"/>
		</clipPath>
		<path class="st10" d="M83.6,722.8L83.6,722.8l-0.8,0.7c-0.6,0.7-1.4,1.3-2,2c-0.2,0.3-0.4,0.5-0.6,0.8l-0.2,0.3v0.2
			c0,0.2,0,0.4,0,0.7v0.1c0.7,1.3,1.5,2.5,2.1,3.9c0.7,1.5,1,3.2,1.8,4.7c0.7,1.6,2.1,2.7,3.8,2.9c0.6,0,1.2-0.1,1.8-0.4
			c0.4-0.2,0.8-0.4,1.2-0.6C88.1,733,85.7,728,83.6,722.8z"/>
	</g>
	<g>
		<defs>
			<rect id="SVGID_23_" x="-108.4" width="1366.8" height="800"/>
		</defs>
		<clipPath id="SVGID_24_">
			<use xlink:href="#SVGID_23_"  style="overflow:visible;"/>
		</clipPath>
		<path class="st11" d="M185.7,570.6c0-1.2-0.2-2.4-0.5-3.5c-0.4-1.4-0.8-2.7-1.5-4c-3-0.6-6.1-1.2-9.1-1.7c-1-0.2-1.9-0.4-2.8-0.7
			l-1.5,1.2l-0.2,0.2v15.8c0.2,0.7,0.5,1.4,0.8,2c0.6,1.1,1.4,2.1,2.4,2.9c1.2-0.4,2.4-0.5,3.6-0.5h1.6
			C180.3,578.1,182.7,574.1,185.7,570.6z"/>
	</g>
	<g>
		<defs>
			<rect id="SVGID_25_" x="-108.4" width="1366.8" height="800"/>
		</defs>
		<clipPath id="SVGID_26_">
			<use xlink:href="#SVGID_25_"  style="overflow:visible;"/>
		</clipPath>
		<path class="st12" d="M51.2,715.4c0.9,1.8,2.1,3.4,2.9,5.2s1.3,4,2.2,5.9c4.1,0,8.2,0.1,12.3,0.2c2.5-3.7,3.3-8.3,2.2-12.6
			c-0.7-2.8-2-5.4-3.6-7.7c-1.1,0-2.1,0-3.2,0c-1.6,0-3.1-0.1-4.6-0.4l-0.2,0.2c-1.1,0.9-2.2,1.8-3.3,2.7l-0.9,0.8
			c-0.8,1-1.8,1.8-2.7,2.8c-0.3,0.3-0.6,0.7-0.8,1.1l-0.2,0.5v0.2c0,0.2,0,0.5,0.1,1C51.2,715.3,51.2,715.4,51.2,715.4z"/>
	</g>
	<g>
		<defs>
			<rect id="SVGID_27_" x="-108.4" width="1366.8" height="800"/>
		</defs>
		<clipPath id="SVGID_28_">
			<use xlink:href="#SVGID_27_"  style="overflow:visible;"/>
		</clipPath>
		<path class="st13" d="M75.4,654.2c0.9,1.8,2.1,3.4,2.9,5.2s1.3,4,2.2,5.9c4.1,0,8.2,0.1,12.3,0.2c2.5-3.7,3.3-8.3,2.2-12.6
			c-0.7-2.8-2-5.4-3.6-7.7c-1.1,0-2.1,0-3.2,0c-1.6,0-3.1-0.1-4.6-0.4l-0.2,0.2c-1.1,0.9-2.2,1.8-3.3,2.7l-0.9,0.8
			c-0.8,1-1.8,1.8-2.7,2.8c-0.3,0.3-0.6,0.7-0.8,1.1l-0.2,0.5v0.2c0,0.2,0,0.5,0.1,1C75.4,654.2,75.4,654.2,75.4,654.2z"/>
	</g>
	<g>
		<defs>
			<rect id="SVGID_29_" x="-108.4" width="1366.8" height="800"/>
		</defs>
		<clipPath id="SVGID_30_">
			<use xlink:href="#SVGID_29_"  style="overflow:visible;"/>
		</clipPath>
		<path class="st14" d="M165.7,730.9c2-3.5,2.6-7.7,1.6-11.7c-0.7-2.8-2-5.4-3.6-7.7c-1.1,0-2.1,0-3.2,0c-0.9,0-1.9,0-2.8-0.1
			c-1.2,1.4-2.3,2.8-3.4,4.3c-0.7,0.9-1.3,1.8-2,2.6c2.1,4,3.9,8.2,5.2,12.5h8.2V730.9z"/>
	</g>
	<g>
		<defs>
			<rect id="SVGID_31_" x="-108.4" width="1366.8" height="800"/>
		</defs>
		<clipPath id="SVGID_32_">
			<use xlink:href="#SVGID_31_"  style="overflow:visible;"/>
		</clipPath>
		<path class="st15" d="M107.4,720.6c0.9,1.8,2.1,3.4,2.9,5.2s1.3,4,2.2,5.9c4.1,0,8.2,0.1,12.3,0.2c2.5-3.7,3.3-8.3,2.2-12.6
			c-0.7-2.8-2-5.4-3.6-7.7c-1.1,0-2.1,0-3.2,0c-1.6,0-3.1-0.1-4.6-0.4l-0.2,0.2c-1.1,0.9-2.2,1.8-3.3,2.7l-0.9,0.8
			c-0.8,1-1.8,1.8-2.7,2.8c-0.3,0.3-0.6,0.7-0.8,1.1l-0.2,0.5v0.2c0,0.2,0,0.5,0.1,1C107.4,720.5,107.4,720.5,107.4,720.6z"/>
	</g>
	<g>
		<defs>
			<rect id="SVGID_33_" x="-108.4" width="1366.8" height="800"/>
		</defs>
		<clipPath id="SVGID_34_">
			<use xlink:href="#SVGID_33_"  style="overflow:visible;"/>
		</clipPath>
		<path class="st16" d="M933.3,120.5l2.1,3.4l0.7,1.1l1.8,2.8L948,127c0.2-0.3,0.4-0.7,0.6-1c0.4-0.7,0.8-1.3,1.2-2l0.5-0.9
			c1-2.3,1.9-4.5,2.6-6.8c-0.3-2.6-0.6-5.2-1.1-7.7c-0.1-0.3-0.1-0.6-0.2-0.9c-2.9-3.8-6.1-7.3-9.5-10.6c-1.1-1.1-2-2.3-2.6-3.7
			c-0.4,0-0.8,0.1-1.2,0.2c-3.1,0.7-5.4,3.2-6.7,6.1c-1.1,2.9-1.7,6-1.9,9.2c-0.2,1.6-0.3,3.3-0.4,4.9
			C930.7,116,932,118.3,933.3,120.5z"/>
	</g>
	<g>
		<defs>
			<rect id="SVGID_35_" x="-108.4" width="1366.8" height="800"/>
		</defs>
		<clipPath id="SVGID_36_">
			<use xlink:href="#SVGID_35_"  style="overflow:visible;"/>
		</clipPath>
		<path class="st17" d="M1082.5,83.8l1,1.7l0.3,0.5l0.9,1.4l5.2-0.4l0.3-0.5c0.2-0.3,0.4-0.7,0.6-1l0.2-0.5c0.5-1.2,1-2.3,1.3-3.5
			c-0.1-1.3-0.3-2.6-0.6-3.9l-0.1-0.5c-1.5-1.9-3.1-3.7-4.8-5.4c-0.6-0.5-1-1.2-1.3-1.9c-0.2,0-0.4,0-0.6,0.1
			c-1.6,0.4-2.8,1.6-3.4,3.1s-0.9,3.1-1,4.7c-0.1,0.8-0.2,1.7-0.2,2.5C1081.2,81.5,1081.8,82.6,1082.5,83.8z"/>
	</g>
	<g>
		<defs>
			<rect id="SVGID_37_" x="-108.4" width="1366.8" height="800"/>
		</defs>
		<clipPath id="SVGID_38_">
			<use xlink:href="#SVGID_37_"  style="overflow:visible;"/>
		</clipPath>
		<path class="st18" d="M989,109.4l-0.8-1.9L988,107l-0.7-1.6l-5.2-0.4l-0.4,0.4c-0.3,0.3-0.5,0.6-0.8,0.9l-0.3,0.4
			c-0.7,1.1-1.3,2.1-1.9,3.2c-0.1,1.3-0.1,2.7-0.1,4c0,0.2,0,0.3,0,0.5c1.2,2.1,2.5,4.2,3.9,6.1c0.5,0.6,0.8,1.3,1,2.1
			c0.2,0,0.4,0,0.6,0c1.6-0.2,3-1.1,3.8-2.5s1.4-2.9,1.7-4.5c0.2-0.8,0.4-1.6,0.6-2.4C990,111.9,989.5,110.7,989,109.4z"/>
	</g>
	<g>
		<defs>
			<rect id="SVGID_39_" x="-108.4" width="1366.8" height="800"/>
		</defs>
		<clipPath id="SVGID_40_">
			<use xlink:href="#SVGID_39_"  style="overflow:visible;"/>
		</clipPath>
		<path class="st19" d="M1111.3,21.4l-0.8-1.9l-0.2-0.6l-0.7-1.5l-5.2-0.4l-0.4,0.5c-0.3,0.3-0.5,0.6-0.8,0.9l-0.3,0.4
			c-0.7,1.1-1.3,2.1-1.9,3.2c-0.1,1.3-0.1,2.6-0.1,4c0,0.2,0,0.3,0,0.5c1.2,2.1,2.5,4.2,3.9,6.1c0.5,0.6,0.8,1.3,1,2.1
			c0.2,0,0.4,0,0.6,0c1.6-0.2,3-1.1,3.8-2.5c0.8-1.4,1.4-2.9,1.7-4.5c0.2-0.8,0.4-1.6,0.6-2.5C1112.2,23.8,1111.7,22.6,1111.3,21.4z
			"/>
	</g>
	<g>
		<defs>
			<rect id="SVGID_41_" x="-108.4" width="1366.8" height="800"/>
		</defs>
		<clipPath id="SVGID_42_">
			<use xlink:href="#SVGID_41_"  style="overflow:visible;"/>
		</clipPath>
		<path class="st20" d="M1027.6,132.8l1,1.7l0.3,0.5l0.9,1.4l5.2-0.4l0.3-0.5c0.2-0.3,0.4-0.7,0.6-1l0.2-0.5c0.5-1.1,1-2.3,1.3-3.5
			c-0.1-1.3-0.3-2.6-0.6-3.9l-0.1-0.5c-1.5-1.9-3.1-3.7-4.8-5.4c-0.6-0.5-1-1.2-1.3-1.9c-0.2,0-0.4,0-0.6,0.1
			c-1.6,0.4-2.8,1.6-3.4,3.1s-0.9,3.1-1,4.7c-0.1,0.8-0.2,1.7-0.2,2.5C1026.2,130.6,1026.9,131.7,1027.6,132.8z"/>
	</g>
	<g>
		<defs>
			<rect id="SVGID_43_" x="-108.4" width="1366.8" height="800"/>
		</defs>
		<clipPath id="SVGID_44_">
			<use xlink:href="#SVGID_43_"  style="overflow:visible;"/>
		</clipPath>
		<path class="st21" d="M1084.9,128.1l1,1.7l0.3,0.5l0.9,1.4l5.2-0.4l0.3-0.5c0.2-0.3,0.4-0.7,0.6-1l0.2-0.5c0.5-1.1,1-2.3,1.3-3.5
			c-0.1-1.3-0.3-2.6-0.6-3.9l-0.1-0.5c-1.5-1.9-3.1-3.7-4.8-5.4c-0.6-0.5-1-1.2-1.3-1.9c-0.2,0-0.4,0-0.6,0.1
			c-1.6,0.4-2.8,1.6-3.4,3.1s-0.9,3.1-1,4.7c-0.1,0.8-0.2,1.7-0.2,2.5C1083.6,125.8,1084.3,127,1084.9,128.1z"/>
	</g>
	<g>
		<defs>
			<rect id="SVGID_45_" x="-108.4" width="1366.8" height="800"/>
		</defs>
		<clipPath id="SVGID_46_">
			<use xlink:href="#SVGID_45_"  style="overflow:visible;"/>
		</clipPath>
		<path class="st22" d="M995.1,176.1c-0.6-1.2-1.1-2.5-1.7-3.7c-4.1-0.5-8.2-1.4-12.2-2.6c-1.1,1.4-1.9,2.9-2.4,4.6
			c3.1,6.2,5.6,12.7,7.7,19.4l2.4-1.1c1.9-0.9,3.9-1.8,5.7-2.9c0.9-0.5,1.8-1,2.7-1.5l0.4-0.2c0.9-0.6,1.7-1.2,2.6-1.9
			c0-0.7-0.2-1.3-0.3-2C998.9,181.1,996.6,178.8,995.1,176.1z"/>
	</g>
	<g>
		<defs>
			<rect id="SVGID_47_" x="-108.4" width="1366.8" height="800"/>
		</defs>
		<clipPath id="SVGID_48_">
			<use xlink:href="#SVGID_47_"  style="overflow:visible;"/>
		</clipPath>
		<path class="st23" d="M1037,163.9c-1.8,2.6-2.2,5.8-3.5,8.7c-0.6,1.2-1.3,2.4-1.9,3.6c1,1.8,2,3.6,2.9,5.5
			c3.7-0.6,7.5-1.2,11.2-1.8c0.2-0.4,0.5-0.9,0.7-1.3c0-0.1,0-0.1,0-0.1c-0.4-4.5-0.6-8.9-0.8-13.3l-0.9-0.4
			c-0.9-0.4-1.9-0.8-2.8-1.2l-0.4-0.1c-1-0.3-2-0.6-3-0.9C1037.9,162.9,1037.4,163.4,1037,163.9z"/>
	</g>
	<g>
		<defs>
			<rect id="SVGID_49_" x="-108.4" width="1366.8" height="800"/>
		</defs>
		<clipPath id="SVGID_50_">
			<use xlink:href="#SVGID_49_"  style="overflow:visible;"/>
		</clipPath>
		<path class="st24" d="M1047.3,110.5c1.4-1.5,2.9-3,4.3-4.5c1-1,2-2,3-3l0.8-0.8c0.8-1,1.7-1.9,2.4-3c0.3-0.4,0.5-0.8,0.8-1.1
			l0.2-0.5c0-0.1,0-0.2,0-0.2s-0.1-0.5-0.1-0.9v-0.1c-1.1-1.7-2.3-3.2-3.3-5c-1.1-2-1.7-4.2-2.9-6.1s-3.2-3.6-5.5-3.5
			c-0.8,0.1-1.6,0.3-2.3,0.7c-5.7,2.9-7.5,10.7-5.4,16.8C1040.9,103.6,1043.9,107.3,1047.3,110.5z"/>
	</g>
	<g>
		<defs>
			<rect id="SVGID_51_" x="-108.4" width="1366.8" height="800"/>
		</defs>
		<clipPath id="SVGID_52_">
			<use xlink:href="#SVGID_51_"  style="overflow:visible;"/>
		</clipPath>
		<path class="st25" d="M992.1,147.3L992.1,147.3l0.7-0.7c0.6-0.8,1.3-1.4,1.8-2.2c0.2-0.3,0.4-0.6,0.6-0.8l0.1-0.4
			c0-0.1,0-0.1,0-0.2s-0.1-0.4-0.1-0.7v-0.1c-0.8-1.2-1.7-2.4-2.4-3.7c-0.8-1.5-1.3-3.1-2.1-4.6s-2.3-2.5-4-2.6
			c-0.6,0.1-1.2,0.2-1.7,0.5c-0.4,0.2-0.8,0.5-1.2,0.7C986.7,137.4,989.5,142.3,992.1,147.3z"/>
	</g>
	<g>
		<defs>
			<rect id="SVGID_53_" x="-108.4" width="1366.8" height="800"/>
		</defs>
		<clipPath id="SVGID_54_">
			<use xlink:href="#SVGID_53_"  style="overflow:visible;"/>
		</clipPath>
		<path class="st26" d="M1085.7,48.2L1085.7,48.2l0.7-0.7c0.6-0.8,1.3-1.4,1.8-2.2c0.2-0.3,0.4-0.6,0.6-0.8l0.1-0.4
			c0-0.1,0-0.1,0-0.2s-0.1-0.4-0.1-0.7v-0.1c-0.8-1.2-1.7-2.4-2.4-3.7c-0.8-1.5-1.3-3.1-2.1-4.5c-0.8-1.5-2.3-2.5-4-2.6
			c-0.6,0.1-1.2,0.2-1.7,0.5c-0.4,0.2-0.8,0.5-1.2,0.7C1080.3,38.3,1083.2,43.2,1085.7,48.2z"/>
	</g>
	<g>
		<defs>
			<rect id="SVGID_55_" x="-108.4" width="1366.8" height="800"/>
		</defs>
		<clipPath id="SVGID_56_">
			<use xlink:href="#SVGID_55_"  style="overflow:visible;"/>
		</clipPath>
		<path class="st27" d="M968.8,74.2c0.1,1.2,0.4,2.4,0.7,3.5c0.5,1.3,1.1,2.6,1.8,3.8c3.1,0.4,6.1,0.7,9.2,0.9
			c1,0.1,1.9,0.2,2.9,0.5l1.4-1.4l0.2-0.2l-1.3-15.8c-0.3-0.7-0.6-1.3-1-1.9c-0.7-1.1-1.6-2-2.7-2.7c-1.1,0.4-2.3,0.7-3.6,0.8
			l-1.6,0.2C973.6,66.4,971.5,70.5,968.8,74.2z"/>
	</g>
	<g>
		<defs>
			<rect id="SVGID_57_" x="-108.4" width="1366.8" height="800"/>
		</defs>
		<clipPath id="SVGID_58_">
			<use xlink:href="#SVGID_57_"  style="overflow:visible;"/>
		</clipPath>
		<path class="st28" d="M1021,110.8c-1.1-1.7-2.3-3.2-3.3-5s-1.6-3.9-2.7-5.7c-4.1,0.3-8.2,0.5-12.3,0.8c-2.2,3.9-2.6,8.5-1.2,12.7
			c1,2.7,2.4,5.2,4.2,7.4c1.1-0.1,2.1-0.2,3.2-0.3c1.5-0.2,3.1-0.2,4.7,0l0.2-0.2c1-1,2-2,3-3l0.8-0.8c0.8-1,1.7-1.9,2.4-3
			c0.3-0.4,0.5-0.8,0.8-1.1l0.2-0.5c0-0.1,0-0.2,0-0.2S1021.1,111.2,1021,110.8L1021,110.8z"/>
	</g>
	<g>
		<defs>
			<rect id="SVGID_59_" x="-108.4" width="1366.8" height="800"/>
		</defs>
		<clipPath id="SVGID_60_">
			<use xlink:href="#SVGID_59_"  style="overflow:visible;"/>
		</clipPath>
		<path class="st29" d="M962.9,181.9c-1.1-1.7-2.3-3.2-3.3-5s-1.6-3.9-2.7-5.7c-4.1,0.3-8.2,0.5-12.3,0.8c-2.2,3.9-2.6,8.5-1.2,12.7
			c1,2.7,2.4,5.2,4.2,7.4c1.1-0.1,2.1-0.2,3.2-0.3c1.5-0.2,3.1-0.2,4.7,0l0.2-0.2c1-1,2-2,3-3l0.8-0.9c0.8-1,1.7-1.9,2.4-3
			c0.3-0.4,0.5-0.8,0.8-1.1l0.2-0.5c0-0.1,0-0.2,0-0.2S963,182.3,962.9,181.9C962.9,182,962.9,181.9,962.9,181.9z"/>
	</g>
	<g>
		<defs>
			<rect id="SVGID_61_" x="-108.4" width="1366.8" height="800"/>
		</defs>
		<clipPath id="SVGID_62_">
			<use xlink:href="#SVGID_61_"  style="overflow:visible;"/>
		</clipPath>
		<path class="st30" d="M1003.2,46.6c-1.7,3.7-2,7.9-0.7,11.8c1,2.7,2.4,5.2,4.2,7.4c1.1-0.1,2.1-0.2,3.2-0.3
			c0.9-0.1,1.9-0.1,2.8-0.1c1.1-1.5,2.1-3,3.1-4.5c0.6-0.9,1.2-1.9,1.8-2.8c-2.4-3.8-4.5-7.8-6.2-12L1003.2,46.6z"/>
	</g>
	<g>
		<defs>
			<rect id="SVGID_63_" x="-108.4" width="1366.8" height="800"/>
		</defs>
		<clipPath id="SVGID_64_">
			<use xlink:href="#SVGID_63_"  style="overflow:visible;"/>
		</clipPath>
		<path class="st31" d="M1062.1,52.3c-1.1-1.7-2.3-3.2-3.3-5s-1.6-3.9-2.7-5.7c-4.1,0.3-8.2,0.5-12.3,0.8c-2.2,3.9-2.6,8.5-1.2,12.7
			c1,2.7,2.4,5.2,4.2,7.4c1.1-0.1,2.1-0.2,3.2-0.3c1.5-0.2,3.1-0.2,4.7,0l0.2-0.2c1-1,2-2,3-3l0.8-0.8c0.8-1,1.7-1.9,2.4-3
			c0.3-0.4,0.5-0.8,0.8-1.1l0.2-0.5c0-0.1,0-0.2,0-0.2S1062.1,52.7,1062.1,52.3C1062.1,52.4,1062.1,52.4,1062.1,52.3z"/>
	</g>
	<g>
		<defs>
			<rect id="SVGID_65_" x="-108.4" width="1366.8" height="800"/>
		</defs>
		<clipPath id="SVGID_66_">
			<use xlink:href="#SVGID_65_"  style="overflow:visible;"/>
		</clipPath>
		<path class="st32" d="M719.8,800H1150V551.7c-26.8,2.6-56,10.6-69,21s-22.6,24.8-35,36.1c-15,13.6-33.8,22.2-53.9,24.9
			c-21.6,2.8-43.5-1.6-65.3-1.7s-45.7,5.5-58.7,23c-14.8,19.8-14.5,52.4-37.3,61.8c-7.5,3.1-15.9,2.7-24,3.2
			C769.3,722.2,734.9,761.1,719.8,800z"/>
	</g>
</g>
<g>
	<text transform="matrix(0.2706 -0.9627 0.9627 0.2706 49.0155 323.4601)" class="st33 st34 st35">s</text>
	<text transform="matrix(0.5383 -0.8427 0.8427 0.5383 51.9927 310.7048)" class="st33 st34 st36">o</text>
	<text transform="matrix(0.8653 -0.5012 0.5012 0.8653 69.2663 286.5431)" class="st33 st34 st35">m</text>
	<text transform="matrix(0.9798 -0.1998 0.1998 0.9798 96.5469 270.5391)" class="st33 st34 st37">a</text>
	<text transform="matrix(0.999 4.557686e-02 -4.557686e-02 0.999 116.0696 266.7874)" class="st33 st34 st38">n</text>
	<text transform="matrix(0.9982 6.056502e-02 -6.056502e-02 0.9982 137.0616 268.2739)" class="st33 st34 st39">y</text>
	<text transform="matrix(0.8866 -0.4625 0.4625 0.8866 180.5363 264.9254)" class="st33 st34 st35">s</text>
	<text transform="matrix(0.6918 -0.7221 0.7221 0.6918 199.3959 255.0408)" class="st33 st34 st35">p</text>
	<text transform="matrix(0.381 -0.9246 0.9246 0.381 217.1676 232.2196)" class="st33 st34 st40">e</text>
	<text transform="matrix(0.5322 -0.8466 0.8466 0.5322 223.1692 215.3538)" class="st33 st34 st41">c</text>
	<text transform="matrix(0.707 -0.7072 0.7072 0.707 231.3671 202.6282)" class="st33 st34 st35">i</text>
	<text transform="matrix(0.855 -0.5186 0.5186 0.855 235.528 197.0175)" class="st33 st34 st42">a</text>
	<text transform="matrix(0.9555 -0.295 0.295 0.9555 252.8192 187.3408)" class="st33 st34 st43">l</text>
	<text transform="matrix(0.9955 9.484805e-02 -9.484805e-02 0.9955 270.5588 182.9939)" class="st33 st34 st35">m</text>
	<text transform="matrix(0.9966 -8.224519e-02 8.224519e-02 0.9966 307.3615 186.132)" class="st33 st34 st35">e</text>
	<text transform="matrix(0.9641 -0.2654 0.2654 0.9641 329.9255 184.3352)" class="st33 st34 st44">m</text>
	<text transform="matrix(0.9211 -0.3893 0.3893 0.9211 364.613 174.2759)" class="st33 st34 st45">o</text>
	<text transform="matrix(0.8482 -0.5296 0.5296 0.8482 385.7394 164.9555)" class="st33 st34 st46">r</text>
	<text transform="matrix(0.7491 -0.6624 0.6624 0.7491 399.9764 155.4859)" class="st33 st34 st47">i</text>
	<text transform="matrix(0.5562 -0.8311 0.8311 0.5562 409.9452 146.7081)" class="st33 st34 st48">e</text>
	<text transform="matrix(0.3622 -0.9321 0.9321 0.3622 421.1678 128.9261)" class="st33 st34 st35">s</text>
</g>
</svg>
