<?xml version="1.0" encoding="utf-8"?>
<!-- Generator: Adobe Illustrator 21.1.0, SVG Export Plug-In . SVG Version: 6.00 Build 0)  -->
<svg version="1.1" id="Layer_1" xmlns="http://www.w3.org/2000/svg" xmlns:xlink="http://www.w3.org/1999/xlink" x="0px" y="0px"
	 viewBox="0 0 1366.8 759.7" style="enable-background:new 0 0 1366.8 759.7;" xml:space="preserve">
<style type="text/css">
	.st0{clip-path:url(#SVGID_2_);fill:#FACBCB;}
	.st1{clip-path:url(#SVGID_2_);enable-background:new    ;}
	.st2{fill:#849ED1;}
	.st3{font-family:'JosefinSans-Bold';}
	.st4{font-size:49.37px;}
	.st5{font-size:49.1919px;}
	.st6{font-size:49.3231px;}
	.st7{font-size:49.3626px;}
	.st8{font-size:49.2167px;}
	.st9{font-size:49.1572px;}
	.st10{font-size:49.4736px;}
	.st11{font-size:49.4317px;}
	.st12{fill:#859FD2;}
	.st13{font-size:49.5203px;}
	.st14{font-size:49.2761px;}
	.st15{font-size:49.1944px;}
	.st16{clip-path:url(#SVGID_2_);fill:#F1E6A9;}
	.st17{clip-path:url(#SVGID_2_);fill:#FFFFFF;}
</style>
<title>background</title>
<g>
	<defs>
		<rect id="SVGID_1_" width="1370.7" height="759.7"/>
	</defs>
	<clipPath id="SVGID_2_">
		<use xlink:href="#SVGID_1_"  style="overflow:visible;"/>
	</clipPath>
	<rect x="-33.1" class="st0" width="1403.8" height="767.4"/>
	<g class="st1">
		<text transform="matrix(5.686708e-02 -0.9984 0.9984 5.686708e-02 965.51 480.0096)" class="st2 st3 st4">w</text>
	</g>
	<g class="st1">
		<text transform="matrix(0.2765 -0.961 0.961 0.2765 969.09 438.9598)" class="st2 st3 st4">e</text>
	</g>
	<g class="st1">
		<text transform="matrix(0.5114 -0.8593 0.8593 0.5114 984.9501 397.2101)" class="st2 st3 st4">l</text>
	</g>
	<g class="st1">
		<text transform="matrix(0.6222 -0.7828 0.7828 0.6222 991.6498 385.5498)" class="st2 st3 st5">o</text>
	</g>
	<g class="st1">
		<text transform="matrix(0.7507 -0.6606 0.6606 0.7507 1008.6091 364.6399)" class="st2 st3 st6">v</text>
	</g>
	<g class="st1">
		<text transform="matrix(0.8601 -0.5101 0.5101 0.8601 1030.0902 346.4802)" class="st2 st3 st7">e</text>
	</g>
	<g class="st1">
		<text transform="matrix(0.973 -0.2307 0.2307 0.973 1069.7397 326.5898)" class="st2 st3 st8">y</text>
	</g>
	<g class="st1">
		<text transform="matrix(0.9983 -5.808675e-02 5.808675e-02 0.9983 1096.03 320.66)" class="st2 st3 st4">o</text>
	</g>
	<g class="st1">
		<text transform="matrix(0.9916 0.129 -0.129 0.9916 1122.86 319.29)" class="st2 st3 st4">u</text>
	</g>
	<g class="st1">
		<text transform="matrix(0.9113 0.4118 -0.4118 0.9113 1170.0103 329.3699)" class="st2 st3 st4">s</text>
	</g>
	<g class="st1">
		<text transform="matrix(0.8336 0.5524 -0.5524 0.8336 1189.2292 338.1104)" class="st2 st3 st9">o</text>
	</g>
	<g class="st1">
		<text transform="matrix(0.5888 0.8083 -0.8083 0.5888 1225.64 365.1611)" class="st2 st3 st10">m</text>
	</g>
	<g class="st1">
		<text transform="matrix(0.3846 0.9231 -0.9231 0.3846 1249.75 399.9)" class="st2 st3 st4">u</text>
	</g>
	<g class="st1">
		<text transform="matrix(0.2171 0.9761 -0.9761 0.2171 1260.5701 427.45)" class="st2 st3 st4">c</text>
	</g>
	<g class="st1">
		<text transform="matrix(4.993762e-02 0.9988 -0.9988 4.993762e-02 1265.541 449.9498)" class="st2 st3 st11">h</text>
	</g>
	<g class="st1">
		<text transform="matrix(0.3489 0.9371 -0.9371 0.3489 958.2904 515.2497)" class="st12 st3 st13">y</text>
	</g>
	<g class="st1">
		<text transform="matrix(0.5221 0.8529 -0.8529 0.5221 970.3698 545.45)" class="st12 st3 st4">o</text>
	</g>
	<g class="st1">
		<text transform="matrix(0.6881 0.7256 -0.7256 0.6881 988.2804 573.08)" class="st12 st3 st4">u</text>
	</g>
	<g class="st1">
		<text transform="matrix(0.7915 0.6112 -0.6112 0.7915 1012.9101 597.0905)" class="st12 st3 st14">’</text>
	</g>
	<g class="st1">
		<text transform="matrix(0.8595 0.5111 -0.5111 0.8595 1025.3901 606.44)" class="st12 st3 st4">r</text>
	</g>
	<g class="st1">
		<text transform="matrix(0.9328 0.3603 -0.3603 0.9328 1047.0499 618.78)" class="st12 st3 st4">e</text>
	</g>
	<g class="st1">
		<text transform="matrix(0.998 6.313889e-02 -6.313889e-02 0.998 1098.48 632.95)" class="st12 st3 st4">t</text>
	</g>
	<g class="st1">
		<text transform="matrix(0.9935 -0.1142 0.1142 0.9935 1122.04 634.14)" class="st12 st3 st4">h</text>
	</g>
	<g class="st1">
		<text transform="matrix(0.9501 -0.3118 0.3118 0.9501 1156.92 628.9901)" class="st12 st3 st4">e</text>
	</g>
	<g class="st1">
		<text transform="matrix(0.7898 -0.6133 0.6133 0.7898 1206.6101 607.2997)" class="st12 st3 st4">b</text>
	</g>
	<g class="st1">
		<text transform="matrix(0.6472 -0.7623 0.7623 0.6472 1234.0699 584.4802)" class="st12 st3 st4">e</text>
	</g>
	<g class="st1">
		<text transform="matrix(0.5219 -0.853 0.853 0.5219 1251.7297 562.6805)" class="st12 st3 st15">s</text>
	</g>
	<g class="st1">
		<text transform="matrix(0.3915 -0.9202 0.9202 0.3915 1264.4399 540.5396)" class="st12 st3 st4">t</text>
	</g>
	<g class="st1">
		<text transform="matrix(0.2768 -0.9609 0.9609 0.2768 1272.63 519.7299)" class="st12 st3 st4">!</text>
	</g>
	<path class="st16" d="M413.8,774.2H-14.8V532.3l0.6,0.3C8.9,524,67.9,533.5,87.2,549c11.7,9.4,20.2,22.2,31.3,32.3
		c13.5,12.1,30.3,19.9,48.3,22.3c19.4,2.5,39-1.5,58.5-1.5s40.9,5,52.6,20.6c13.2,17.7,12.9,46.9,33.4,55.3
		c6.7,2.8,14.3,2.4,21.5,2.8C369.3,683,402.6,734.4,413.8,774.2z"/>
	<path class="st17" d="M1238.9,28.9c-0.1,0.6-0.8,3.5-0.9,3.9l-0.3,1.2c-0.2,1.1-0.5,2.2-0.7,3.2l7.9,6.5l1.1-0.3
		c0.8-0.2,1.5-0.4,2.3-0.6l1-0.3c2.3-1,4.5-1.9,6.6-3.1c1.6-2.1,3.1-4.2,4.6-6.3l0.5-0.8c0.5-4.7,0.7-9.5,0.6-14.2
		c-0.1-1.5,0.2-3,0.7-4.5c-0.3-0.3-0.6-0.5-1-0.7c-2.7-1.6-6.2-1.4-9.1-0.2c-2.8,1.4-5.4,3.1-7.7,5.3c-1.2,1.1-2.5,2.1-3.7,3.3
		C1240.2,23.8,1239.5,26.3,1238.9,28.9z"/>
	<path class="st17" d="M1204.7,28.3l-0.4,2l-0.1,0.6l-0.3,1.7l4,3.3l0.6-0.1l1.2-0.3l0.5-0.2c1.2-0.5,2.3-1,3.4-1.5
		c0.8-1,1.6-2.1,2.3-3.2l0.3-0.4c0.3-2.4,0.4-4.8,0.3-7.2c0-0.8,0.1-1.5,0.3-2.3c-0.2-0.1-0.3-0.3-0.5-0.4c-1.4-0.8-3.1-0.8-4.6-0.1
		c-1.4,0.7-2.8,1.6-3.9,2.7c-0.6,0.5-1.3,1.1-1.9,1.7C1205.3,25.7,1205,27,1204.7,28.3z"/>
	<path class="st17" d="M1286.7,59.7l0.8-1.9l0.2-0.6l0.6-1.6l-3.4-3.9l-0.6,0l-1.2,0.1l-0.5,0.1c-1.2,0.3-2.4,0.6-3.6,1
		c-1,0.9-1.9,1.8-2.8,2.8l-0.3,0.4c-0.6,2.3-1.1,4.7-1.4,7.1c-0.1,0.8-0.3,1.5-0.7,2.2c0.1,0.2,0.3,0.3,0.4,0.4c1.3,1,3,1.3,4.5,0.8
		c1.5-0.4,3-1.1,4.3-2c0.7-0.4,1.4-0.9,2.1-1.3C1285.7,62.1,1286.2,60.9,1286.7,59.7z"/>
	<path class="st17" d="M1298.2,103.3l-0.4,2l-0.1,0.6l-0.3,1.7l4,3.3l0.6-0.1l1.2-0.3l0.5-0.2c1.2-0.5,2.3-1,3.4-1.6
		c0.8-1,1.6-2.1,2.3-3.2l0.3-0.4c0.3-2.4,0.4-4.8,0.3-7.2c0-0.8,0.1-1.5,0.3-2.3c-0.2-0.1-0.3-0.3-0.5-0.4c-1.4-0.8-3.1-0.8-4.6-0.1
		c-1.4,0.7-2.8,1.6-3.9,2.7c-0.6,0.5-1.3,1.1-1.9,1.7C1298.8,100.7,1298.4,102,1298.2,103.3z"/>
	<path class="st17" d="M1326.5,131.6l-0.4,2l-0.1,0.6l-0.3,1.7l4,3.3l0.6-0.1l1.2-0.3l0.5-0.2c1.2-0.5,2.3-1,3.4-1.6
		c0.8-1,1.6-2.1,2.3-3.2l0.3-0.4c0.3-2.4,0.4-4.8,0.3-7.2c0-0.8,0.1-1.5,0.3-2.3c-0.2-0.1-0.3-0.3-0.5-0.4c-1.4-0.8-3.1-0.8-4.6-0.1
		c-1.4,0.7-2.8,1.6-3.9,2.7c-0.6,0.5-1.3,1.1-1.9,1.7C1327.1,129,1326.8,130.3,1326.5,131.6z"/>
	<path class="st17" d="M1244.8,111.8c0.4-1.3,0.9-2.6,1.4-3.8c-2.6-3.3-5-6.7-7-10.4c-1.7,0.2-3.4,0.7-4.9,1.6
		c-2.1,6.6-4.8,13.1-7.9,19.2l2.5,0.9c2,0.7,4.1,1.4,6.1,1.9c1,0.3,2,0.5,3,0.8l0.4,0.1c1,0.2,2.1,0.3,3.1,0.5
		c0.4-0.5,0.8-1.1,1.1-1.7C1244,118.1,1243.9,114.8,1244.8,111.8z"/>
	<path class="st17" d="M1283.3,132.2c-3.1,0.6-5.7,2.6-8.6,3.8c-1.3,0.5-2.6,0.8-3.9,1.2c-0.5,2-1.1,4-1.8,6
		c3.1,2.1,6.2,4.3,9.3,6.5l1.4-0.4l0.1-0.1c2.9-3.5,5.8-6.9,8.7-10.1c-0.1-0.3-0.2-0.6-0.4-1c-0.4-0.9-0.8-1.9-1.2-2.8l-0.2-0.4
		c-0.5-0.9-1-1.9-1.5-2.8C1284.7,132,1284,132.1,1283.3,132.2z"/>
	<path class="st17" d="M1327.8,100.9c2.1-0.1,4.2-0.2,6.2-0.2c1.4,0,2.8,0,4.2,0h1.2c1.3-0.2,2.6-0.2,3.8-0.4
		c0.4-0.1,0.9-0.2,1.3-0.3l0.5-0.2l0.2-0.2l0.6-0.8l0.1-0.1c0.4-1.9,0.6-3.9,1.1-5.8c0.6-2.2,1.7-4.2,2.2-6.4s0.2-4.8-1.5-6.3
		c-0.6-0.5-1.4-0.9-2.2-1.1c-6.1-1.9-12.8,2.5-15.6,8.3C1328,91.5,1327.6,96.2,1327.8,100.9z"/>
	<path class="st17" d="M1262.6,89h0.1h0.9c0.9-0.2,1.9-0.2,2.8-0.3c0.3-0.1,0.7-0.1,1-0.2l0.4-0.2l0.1-0.1l0.4-0.6l0.1-0.1
		c0.3-1.4,0.4-2.9,0.8-4.3c0.4-1.6,1.3-3.1,1.6-4.8c0.5-1.6,0.1-3.4-1.1-4.7c-0.5-0.4-1-0.7-1.6-0.8c-0.4-0.1-0.9-0.2-1.3-0.3
		C1265.5,78.2,1264.2,83.6,1262.6,89z"/>
	<path class="st17" d="M1323.6,180.4h0.1h0.9c0.9-0.2,1.9-0.2,2.8-0.3c0.3-0.1,0.7-0.1,1-0.2l0.4-0.2l0.1-0.1l0.4-0.6l0.1-0.1
		c0.3-1.4,0.4-2.9,0.8-4.3c0.4-1.6,1.3-3.1,1.6-4.8c0.5-1.6,0.1-3.4-1.1-4.7c-0.5-0.4-1-0.7-1.6-0.8c-0.4-0.1-0.9-0.2-1.3-0.3
		C1326.6,169.5,1325.2,175,1323.6,180.4z"/>
	<path class="st17" d="M1296.6,20.2c-0.7,0.9-1.4,1.9-1.9,3c-0.6,1.3-1.1,2.6-1.4,4c1.9,2.4,3.9,4.8,6,7.1c0.6,0.7,1.2,1.5,1.7,2.3
		h1.9h0.3l10-12.2c0.3-0.7,0.5-1.4,0.6-2.1c0.3-1.2,0.3-2.6,0-3.8c-1.1-0.5-2.2-1.1-3.1-1.9l-1.2-1
		C1305.5,17.9,1301.2,19.4,1296.6,20.2z"/>
	<path class="st17" d="M1308.8,82.8c0.4-1.9,0.6-3.9,1.1-5.8s1.5-3.9,2-5.9c-3.1-2.7-6.3-5.3-9.4-8c-4.3,1.3-7.8,4.3-9.7,8.3
		c-1.2,2.6-1.9,5.4-2.1,8.2c0.8,0.7,1.7,1.3,2.5,2c1.2,1,2.3,2.1,3.3,3.3h0.3c1.4,0,2.8,0,4.2,0h1.2c1.3-0.2,2.6-0.2,3.8-0.4
		c0.4-0.1,0.9-0.2,1.3-0.3l0.5-0.2l0.2-0.2l0.6-0.8L1308.8,82.8z"/>
	<path class="st17" d="M1217.6,93.6c0.4-1.9,0.6-3.9,1.1-5.8s1.5-3.9,2-5.9c-3.1-2.7-6.3-5.3-9.4-8c-4.3,1.3-7.8,4.3-9.7,8.3
		c-1.2,2.6-1.9,5.4-2.1,8.2c0.8,0.7,1.7,1.3,2.5,2c1.2,1,2.3,2.1,3.3,3.3h0.3c1.4,0,2.8,0,4.2,0h1.2c1.3-0.2,2.6-0.2,3.8-0.4
		c0.4-0.1,0.9-0.2,1.3-0.3l0.5-0.2l0.2-0.2l0.6-0.8L1217.6,93.6z"/>
	<path class="st17" d="M1340.5,24.3c-3.8,1.5-6.9,4.3-8.7,8c-1.2,2.6-1.9,5.4-2.1,8.2c0.8,0.7,1.7,1.3,2.5,2
		c0.7,0.6,1.4,1.2,2.1,1.9c1.8-0.3,3.6-0.7,5.4-1.1c1.1-0.2,2.1-0.5,3.2-0.8c0.9-4.4,2.2-8.8,3.9-12.9L1340.5,24.3z"/>
	<path class="st17" d="M1174.6,45.6c0.4-1.9,0.6-3.9,1.1-5.8s1.5-3.9,2-5.9c-3.1-2.7-6.3-5.3-9.4-8c-4.3,1.3-7.8,4.3-9.7,8.3
		c-1.2,2.6-1.9,5.4-2.1,8.2c0.8,0.7,1.7,1.3,2.5,2c1.2,1,2.3,2.1,3.3,3.3h0.3c1.4,0,2.8,0,4.2,0h1.2c1.3-0.2,2.6-0.2,3.8-0.4
		c0.4-0.1,0.9-0.2,1.3-0.3l0.5-0.2l0.2-0.2l0.6-0.8L1174.6,45.6z"/>
</g>
</svg>
