<svg id="Layer_1" data-name="Layer 1" xmlns="http://www.w3.org/2000/svg" viewBox="0 0 332.86 329.18"><defs><style>.cls-1{font-size:45.14px;fill:#262262;font-family:JosefinSans-Bold, Josefin Sans;font-weight:700;}</style></defs><title>Logo</title><text class="cls-1" transform="translate(19.48 182.1) rotate(-86.52)">m</text><text class="cls-1" transform="translate(22.98 143.54) rotate(-73.29)">o</text><text class="cls-1" transform="matrix(0.5, -0.87, 0.87, 0.5, 29.54, 120.03)">m</text><text class="cls-1" transform="translate(50.14 87.04) rotate(-48.59)"> </text><text class="cls-1" transform="matrix(0.77, -0.64, 0.64, 0.77, 61.23, 74.28)">g</text><text class="cls-1" transform="translate(82.17 57.79) rotate(-30.15)">r</text><text class="cls-1" transform="translate(96.12 49.45) rotate(-21.63)">a</text><text class="cls-1" transform="matrix(0.98, -0.19, 0.19, 0.98, 120.54, 40.12)">n</text><text class="cls-1" transform="matrix(1, 0, 0, 1, 145.63, 35.56)">d</text><text class="cls-1" transform="translate(172.35 35.16) rotate(13.65)">m</text><text class="cls-1" transform="translate(209.68 45.35) rotate(27.16)">a</text><text class="cls-1" transform="translate(232.82 57.94) rotate(36.15)"> </text><text class="cls-1" transform="translate(246.75 67.2) rotate(47.46)">w</text><text class="cls-1" transform="translate(271.4 95.71) rotate(60.18)">e</text><text class="cls-1" transform="translate(282.94 116.26) rotate(70.5)">n</text><text class="cls-1" transform="translate(291.22 140.32) rotate(81.42)">d</text><text class="cls-1" transform="matrix(-0.04, 1, -1, -0.04, 294.89, 167.02)">y</text><text class="cls-1" transform="translate(293.25 192.88) rotate(101.27)"> </text><text class="cls-1" transform="translate(11.2 210.37) rotate(68.75)">m</text><text class="cls-1" transform="matrix(0.59, 0.81, -0.81, 0.59, 29.61, 251.87)">o</text><text class="cls-1" transform="translate(48.07 276.88) rotate(39.48)">m</text><text class="cls-1" transform="translate(84.31 303.97) rotate(25.3)">é</text><text class="cls-1" transform="translate(110.05 315.13) rotate(15.85)"> </text><text class="cls-1" transform="translate(131.75 321.54) rotate(2.91)">m</text><text class="cls-1" transform="translate(177.11 321.71) rotate(-11.63)">o</text><text class="cls-1" transform="translate(207.44 315.17) rotate(-26.11)">m</text><text class="cls-1" transform="translate(247.34 293.28) rotate(-41.1)">a</text><text class="cls-1" transform="matrix(0.64, -0.77, 0.77, 0.64, 269.61, 272.32)">l</text><text class="cls-1" transform="translate(279.79 259.94) rotate(-58.33)">o</text><text class="cls-1" transform="translate(294.73 233.94) rotate(-69.98)">o</text></svg>