<?xml version="1.0" encoding="utf-8"?>
<!-- Generator: Adobe Illustrator 21.1.0, SVG Export Plug-In . SVG Version: 6.00 Build 0)  -->
<svg version="1.1" id="Layer_1" xmlns="http://www.w3.org/2000/svg" xmlns:xlink="http://www.w3.org/1999/xlink" x="0px" y="0px"
	 viewBox="0 0 1150 800" style="enable-background:new 0 0 1150 800;" xml:space="preserve">
<style type="text/css">
	.st0{fill:#FFFFFF;}
	.st1{fill:#F1E6A9;}
	.st2{clip-path:url(#SVGID_2_);}
	.st3{fill:#BDDAD6;}
</style>
<rect class="st0" width="1150" height="800"/>
<title>background</title>
<g>
	<path class="st1" d="M324.3-6.3H0l0,187.2c20.2-1.9,42.2-8,52-15.8c9.9-7.9,17-18.7,26.4-27.2C89.6,127.7,104,121,119,119.1
		c16.3-2.1,32.8,1.2,49.3,1.3c16.4,0,34.4-4.2,44.3-17.4c11.1-14.9,10.9-39.5,28.1-46.6c5.7-2.3,12-2,18.1-2.4
		C287,52.4,312.9,23,324.3-6.3z"/>
</g>
<g>
	<defs>
		<rect id="SVGID_1_" width="1150" height="800"/>
	</defs>
	<clipPath id="SVGID_2_">
		<use xlink:href="#SVGID_1_"  style="overflow:visible;"/>
	</clipPath>
	<g class="st2">
		<g>
			<path class="st0" d="M160.2,639.1l-1.8-3.6l-0.6-1.1l-1.6-2.9H146l-0.7,1c-0.5,0.6-0.9,1.3-1.3,1.9l-0.5,0.9
				c-1.1,2.2-2.2,4.3-3.2,6.6c0.1,2.6,0.2,5.2,0.5,7.8c0,0.3,0.1,0.6,0.1,1c2.6,4,5.5,7.7,8.6,11.3c1,1.1,1.8,2.4,2.3,3.9
				c0.4,0,0.8,0,1.2-0.1c3.1-0.4,5.7-2.8,7.2-5.6c1.3-2.8,2.2-5.9,2.6-9c0.3-1.6,0.6-3.2,0.8-4.9
				C162.5,643.8,161.3,641.4,160.2,639.1z"/>
		</g>
		<g>
			<path class="st0" d="M89.6,687.6l-0.9-1.8l-0.3-0.6l-0.8-1.5h-5.2l-0.4,0.5c-0.2,0.3-0.5,0.7-0.7,1l-0.3,0.4
				c-0.6,1.1-1.1,2.2-1.6,3.3c0,1.3,0.1,2.7,0.2,4c0,0.2,0,0.3,0,0.5c1.3,2,2.8,3.9,4.4,5.8c0.5,0.6,0.9,1.3,1.2,2
				c0.2,0,0.4,0,0.6,0c1.6-0.3,2.9-1.4,3.6-2.8c0.7-1.4,1.1-3,1.3-4.6c0.2-0.8,0.3-1.7,0.4-2.5C90.7,690,90.2,688.8,89.6,687.6z"/>
		</g>
		<g>
			<path class="st0" d="M56.5,770.4l0.6,1.9l0.2,0.6l0.5,1.6l5.2,0.8l0.4-0.4c0.3-0.3,0.5-0.6,0.8-0.9l0.3-0.4c0.8-1,1.5-2,2.1-3
				c0.2-1.3,0.3-2.6,0.4-4c0-0.2,0-0.3,0-0.5c-1-2.2-2.1-4.3-3.4-6.4c-0.4-0.7-0.7-1.4-0.9-2.1c-0.2,0-0.4-0.1-0.6-0.1
				c-1.6,0.1-3.1,0.9-4,2.2s-1.6,2.8-2,4.3c-0.3,0.8-0.5,1.6-0.8,2.4C55.7,767.9,56.1,769.1,56.5,770.4z"/>
		</g>
		<g>
			<path class="st0" d="M176.2,607.9l-0.9-1.8l-0.3-0.6l-0.8-1.5H169l-0.4,0.5c-0.2,0.3-0.5,0.7-0.7,1l-0.3,0.4
				c-0.6,1.1-1.1,2.2-1.6,3.3c0,1.3,0.1,2.7,0.2,4c0,0.2,0,0.3,0,0.5c1.3,2,2.8,3.9,4.4,5.8c0.5,0.6,0.9,1.3,1.2,2
				c0.2,0,0.4,0,0.6,0c1.6-0.3,2.9-1.4,3.6-2.8c0.7-1.4,1.1-3,1.3-4.6c0.1-0.8,0.3-1.7,0.4-2.5C177.3,610.3,176.8,609.1,176.2,607.9
				z"/>
		</g>
		<g>
			<path class="st0" d="M95.5,607.9l-0.9-1.8l-0.3-0.6l-0.8-1.5h-5.2l-0.4,0.5c-0.2,0.3-0.5,0.7-0.7,1l-0.3,0.4
				c-0.6,1.1-1.1,2.2-1.6,3.3c0,1.3,0.1,2.7,0.2,4c0,0.2,0,0.3,0,0.5c1.3,2,2.8,3.9,4.4,5.8c0.5,0.6,0.9,1.3,1.2,2
				c0.2,0,0.4,0,0.6,0c1.6-0.3,2.9-1.4,3.6-2.8c0.7-1.5,1.2-3,1.4-4.7c0.2-0.8,0.3-1.7,0.4-2.5C96.7,610.3,96.1,609.1,95.5,607.9z"
				/>
		</g>
		<g>
			<path class="st0" d="M111.5,637.5c0.6,1.2,0.9,2.5,1.4,3.8c4.1,0.9,8.1,2.1,12,3.6c1.2-1.3,2.2-2.8,2.8-4.4
				c-2.6-6.5-4.6-13.1-6.1-19.9l-2.5,0.9c-2,0.7-4,1.5-6,2.4c-0.9,0.4-1.9,0.8-2.8,1.3l-0.4,0.2c-0.9,0.5-1.8,1.1-2.7,1.6
				c0,0.7,0.1,1.3,0.2,2C108.1,632.1,110.2,634.6,111.5,637.5z"/>
		</g>
		<g>
			<path class="st0" d="M141.3,611.3c2-2.4,2.7-5.6,4.2-8.4c0.6-1.2,1.4-2.3,2.2-3.4c-0.9-1.9-1.7-3.8-2.4-5.7
				c-3.8,0.3-7.6,0.7-11.3,0.9c-0.3,0.4-0.5,0.8-0.8,1.2c0,0,0,0.1,0,0.2c0,4.5-0.1,9-0.3,13.4l0.9,0.5c0.9,0.5,1.8,1,2.7,1.4
				l0.4,0.2c1,0.4,2,0.8,2.9,1.2C140.4,612.3,140.9,611.8,141.3,611.3z"/>
		</g>
		<g>
			<path class="st0" d="M126.8,663.7c-1.5,1.4-3.1,2.8-4.7,4.1c-1.1,0.9-2.2,1.8-3.3,2.7l-0.9,0.8c-0.8,1-1.8,1.8-2.7,2.8
				c-0.3,0.3-0.6,0.7-0.8,1.1l-0.2,0.5v0.2c0,0.2,0,0.5,0.1,1v0.1c0.9,1.8,2.1,3.4,2.9,5.2c0.9,2.1,1.4,4.3,2.4,6.3s2.9,3.8,5.2,3.9
				c0.8,0,1.6-0.2,2.4-0.5c5.9-2.4,8.3-10,6.8-16.3C132.7,671.1,130,667.2,126.8,663.7z"/>
		</g>
		<g>
			<path class="st0" d="M184.8,631.4L184.8,631.4l-0.8,0.7c-0.6,0.7-1.4,1.3-2,2c-0.2,0.3-0.4,0.5-0.6,0.8l-0.2,0.3v0.2
				c0,0.2,0,0.4,0,0.7v0.1c0.7,1.3,1.5,2.5,2.1,3.9c0.7,1.5,1,3.2,1.8,4.7c0.7,1.6,2.1,2.7,3.8,2.9c0.6,0,1.2-0.1,1.8-0.4
				c0.4-0.2,0.8-0.4,1.2-0.6C189.4,641.7,186.9,636.6,184.8,631.4z"/>
		</g>
		<g>
			<path class="st0" d="M83.6,722.8L83.6,722.8l-0.8,0.7c-0.6,0.7-1.4,1.3-2,2c-0.2,0.3-0.4,0.5-0.6,0.8l-0.2,0.3v0.2
				c0,0.2,0,0.4,0,0.7v0.1c0.7,1.3,1.5,2.5,2.1,3.9c0.7,1.5,1,3.2,1.8,4.7c0.7,1.6,2.1,2.7,3.8,2.9c0.6,0,1.2-0.1,1.8-0.4
				c0.4-0.2,0.8-0.4,1.2-0.6C88.1,733,85.7,728,83.6,722.8z"/>
		</g>
		<g>
			<path class="st0" d="M185.7,570.6c0-1.2-0.2-2.4-0.5-3.5c-0.4-1.4-0.8-2.7-1.5-4c-3-0.6-6.1-1.2-9.1-1.7c-1-0.2-1.9-0.4-2.8-0.7
				l-1.5,1.2l-0.2,0.2v15.8c0.2,0.7,0.5,1.4,0.8,2c0.6,1.1,1.4,2.1,2.4,2.9c1.2-0.4,2.4-0.5,3.6-0.5h1.6
				C180.3,578.1,182.7,574.1,185.7,570.6z"/>
		</g>
		<g>
			<path class="st0" d="M51.2,715.4c0.9,1.8,2.1,3.4,2.9,5.2s1.3,4,2.2,5.9c4.1,0,8.2,0.1,12.3,0.2c2.5-3.7,3.3-8.3,2.2-12.6
				c-0.7-2.8-2-5.4-3.6-7.7c-1.1,0-2.1,0-3.2,0c-1.6,0-3.1-0.1-4.6-0.4l-0.2,0.2c-1.1,0.9-2.2,1.8-3.3,2.7l-0.9,0.8
				c-0.8,1-1.8,1.8-2.7,2.8c-0.3,0.3-0.6,0.7-0.8,1.1l-0.2,0.5v0.2c0,0.2,0,0.5,0.1,1C51.2,715.3,51.2,715.4,51.2,715.4z"/>
		</g>
		<g>
			<path class="st0" d="M75.4,654.2c0.9,1.8,2.1,3.4,2.9,5.2s1.3,4,2.2,5.9c4.1,0,8.2,0.1,12.3,0.2c2.5-3.7,3.3-8.3,2.2-12.6
				c-0.7-2.8-2-5.4-3.6-7.7c-1.1,0-2.1,0-3.2,0c-1.6,0-3.1-0.1-4.6-0.4l-0.2,0.2c-1.1,0.9-2.2,1.8-3.3,2.7l-0.9,0.8
				c-0.8,1-1.8,1.8-2.7,2.8c-0.3,0.3-0.6,0.7-0.8,1.1l-0.2,0.5v0.2c0,0.2,0,0.5,0.1,1C75.4,654.2,75.4,654.2,75.4,654.2z"/>
		</g>
		<g>
			<path class="st0" d="M165.7,730.9c2-3.5,2.6-7.7,1.6-11.7c-0.7-2.8-2-5.4-3.6-7.7c-1.1,0-2.1,0-3.2,0c-0.9,0-1.9,0-2.8-0.1
				c-1.2,1.4-2.3,2.8-3.4,4.3c-0.7,0.9-1.3,1.8-2,2.6c2.1,4,3.9,8.2,5.2,12.5h8.2V730.9z"/>
		</g>
		<g>
			<path class="st0" d="M107.4,720.6c0.9,1.8,2.1,3.4,2.9,5.2s1.3,4,2.2,5.9c4.1,0,8.2,0.1,12.3,0.2c2.5-3.7,3.3-8.3,2.2-12.6
				c-0.7-2.8-2-5.4-3.6-7.7c-1.1,0-2.1,0-3.2,0c-1.6,0-3.1-0.1-4.6-0.4l-0.2,0.2c-1.1,0.9-2.2,1.8-3.3,2.7l-0.9,0.8
				c-0.8,1-1.8,1.8-2.7,2.8c-0.3,0.3-0.6,0.7-0.8,1.1l-0.2,0.5v0.2c0,0.2,0,0.5,0.1,1C107.4,720.5,107.4,720.5,107.4,720.6z"/>
		</g>
		<g>
			<path class="st3" d="M934.5,36.4l2.1,3.4l0.7,1.1l1.8,2.8l10.1-0.8c0.2-0.3,0.4-0.7,0.6-1c0.4-0.7,0.8-1.3,1.2-2l0.5-0.9
				c1-2.3,1.9-4.5,2.6-6.8c-0.3-2.6-0.6-5.2-1.1-7.7c-0.1-0.3-0.1-0.6-0.2-0.9c-2.9-3.8-6.1-7.3-9.5-10.6c-1.1-1.1-2-2.3-2.6-3.7
				c-0.4,0-0.8,0.1-1.2,0.2c-3.1,0.7-5.4,3.2-6.7,6.1c-1.1,2.9-1.7,6-1.9,9.2c-0.2,1.6-0.3,3.3-0.4,4.9
				C931.9,31.9,933.2,34.2,934.5,36.4z"/>
		</g>
		<g>
			<path class="st3" d="M1082.5,66.8l1,1.7l0.3,0.5l0.9,1.4l5.2-0.4l0.3-0.5c0.2-0.3,0.4-0.7,0.6-1l0.2-0.5c0.5-1.2,1-2.3,1.3-3.5
				c-0.1-1.3-0.3-2.6-0.6-3.9l-0.1-0.5c-1.5-1.9-3.1-3.7-4.8-5.4c-0.6-0.5-1-1.2-1.3-1.9c-0.2,0-0.4,0-0.6,0.1
				c-1.6,0.4-2.8,1.6-3.4,3.1s-0.9,3.1-1,4.7c-0.1,0.8-0.2,1.7-0.2,2.5C1081.2,64.5,1081.8,65.6,1082.5,66.8z"/>
		</g>
		<g>
			<path class="st3" d="M991,82.9l-0.8-1.9l-0.2-0.5l-0.7-1.6l-5.2-0.4l-0.4,0.4c-0.3,0.3-0.5,0.6-0.8,0.9l-0.3,0.4
				c-0.7,1.1-1.3,2.1-1.9,3.2c-0.1,1.3-0.1,2.7-0.1,4c0,0.2,0,0.3,0,0.5c1.2,2.1,2.5,4.2,3.9,6.1c0.5,0.6,0.8,1.3,1,2.1
				c0.2,0,0.4,0,0.6,0c1.6-0.2,3-1.1,3.8-2.5s1.4-2.9,1.7-4.5c0.2-0.8,0.4-1.6,0.6-2.4C992,85.4,991.5,84.2,991,82.9z"/>
		</g>
		<g>
			<path class="st3" d="M1137.4,73.3l-0.8-1.9l-0.2-0.5l-0.7-1.6l-5.2-0.4l-0.4,0.4c-0.3,0.3-0.5,0.6-0.8,0.9l-0.3,0.4
				c-0.7,1.1-1.3,2.1-1.9,3.2c-0.1,1.3-0.1,2.7-0.1,4c0,0.2,0,0.3,0,0.5c1.2,2.1,2.5,4.2,3.9,6.1c0.5,0.6,0.8,1.3,1,2.1
				c0.2,0,0.4,0,0.6,0c1.6-0.2,3-1.1,3.8-2.5c0.8-1.4,1.4-2.9,1.7-4.5c0.2-0.8,0.4-1.6,0.6-2.4C1138.4,75.8,1137.9,74.6,1137.4,73.3
				z"/>
		</g>
		<g>
			<path class="st3" d="M828.9,18.1l-1.8,0.9l-0.5,0.3l-1.4,0.8l0.1,5.2l0.5,0.3c0.3,0.2,0.7,0.4,1,0.7l0.5,0.2
				c1.1,0.6,2.2,1.1,3.4,1.5c1.3,0,2.6-0.2,3.9-0.4l0.5-0.1c2-1.4,3.9-2.9,5.7-4.5c0.5-0.6,1.3-0.9,2-1.2c0-0.2,0-0.4-0.1-0.6
				c-0.3-1.6-1.4-2.9-2.9-3.6s-3-1.1-4.6-1.3c-0.8-0.1-1.7-0.3-2.5-0.3C831.2,16.8,830.1,17.4,828.9,18.1z"/>
		</g>
		<g>
			<path class="st3" d="M1110.4,48.8l0.8,1.4l0.2,0.4l0.7,1.1l4.2-0.3l0.2-0.4c0.2-0.2,0.3-0.6,0.5-0.8l0.2-0.4
				c0.4-0.9,0.8-1.9,1.1-2.8c-0.1-1.1-0.2-2.1-0.5-3.2l-0.1-0.4c-1.2-1.5-2.5-3-3.9-4.4c-0.5-0.4-0.8-1-1.1-1.5
				c-0.2,0-0.3,0-0.5,0.1c-1.3,0.3-2.3,1.3-2.7,2.5c-0.5,1.2-0.7,2.5-0.8,3.8c-0.1,0.6-0.2,1.4-0.2,2
				C1109.3,47,1109.8,47.9,1110.4,48.8z"/>
		</g>
		<g>
			<path class="st3" d="M898.7,24.1c-0.9-1.1-1.9-2.2-2.8-3.3c-2.5,0-5,0.1-7.6,0.1c-0.4,1.2-0.6,2.5-0.7,3.8
				c-0.1,0.8-0.2,1.7-0.2,2.5c0.9,1.3,1.6,2.5,2.2,3.6l1,1.7l0.3,0.5l0.9,1.4L897,34l0.3-0.5c0.2-0.3,0.4-0.7,0.6-1l0.2-0.5
				c0.5-1.1,1-2.3,1.3-3.5c-0.1-1.3-0.3-2.6-0.6-3.9L898.7,24.1z"/>
		</g>
		<g>
			<path class="st3" d="M1129.5,119.5c0.7,1.3,1.5,2.5,2.4,3.6c2.5,0.3,5,0.6,7.5,0.9c0.6-1.2,0.9-2.4,1.2-3.7
				c0.2-0.8,0.4-1.7,0.5-2.5c-0.7-1.4-1.3-2.7-1.7-3.9l-0.8-1.8l-0.2-0.5l-0.7-1.5l-5.2-0.3l-0.4,0.5c-0.2,0.3-0.5,0.6-0.7,0.9
				l-0.3,0.5c-0.6,1-1.3,2.2-1.7,3.3c-0.1,1.3,0,2.6,0.1,3.9L1129.5,119.5z"/>
		</g>
		<g>
			<path class="st3" d="M905.4,57.8c-0.6-1.2-1.1-2.5-1.7-3.7c-4.1-0.5-8.2-1.4-12.2-2.6c-1.1,1.4-1.9,2.9-2.4,4.6
				c3.1,6.2,5.6,12.7,7.7,19.4l2.4-1.1c1.9-0.9,3.9-1.8,5.7-2.9c0.9-0.5,1.8-1,2.7-1.5l0.4-0.2c0.9-0.6,1.7-1.2,2.6-1.9
				c0-0.7-0.2-1.3-0.3-2C909.2,62.8,906.9,60.5,905.4,57.8z"/>
		</g>
		<g>
			<path class="st3" d="M834.8,54.9c-1.8,2.6-2.2,5.8-3.5,8.7c-0.6,1.2-1.3,2.4-1.9,3.6c1,1.8,2,3.6,2.9,5.5
				c3.7-0.6,7.5-1.2,11.2-1.8c0.2-0.4,0.5-0.9,0.7-1.3c0-0.1,0-0.1,0-0.1c-0.4-4.5-0.6-8.9-0.8-13.3l-0.9-0.4
				c-0.9-0.4-1.9-0.8-2.8-1.2l-0.4-0.1c-1-0.3-2-0.6-3-0.9C835.7,53.9,835.2,54.4,834.8,54.9z"/>
		</g>
		<g>
			<path class="st3" d="M1047.3,93.5c1.4-1.5,2.9-3,4.3-4.5c1-1,2-2,3-3l0.8-0.8c0.8-1,1.7-1.9,2.4-3c0.3-0.4,0.5-0.8,0.8-1.1
				l0.2-0.5c0-0.1,0-0.2,0-0.2s-0.1-0.5-0.1-0.9v-0.1c-1.1-1.7-2.3-3.2-3.3-5c-1.1-2-1.7-4.2-2.9-6.1s-3.2-3.6-5.5-3.5
				c-0.8,0.1-1.6,0.3-2.3,0.7c-5.7,2.9-7.5,10.7-5.4,16.8C1040.9,86.6,1043.9,90.3,1047.3,93.5z"/>
		</g>
		<g>
			<path class="st3" d="M784.5,39.1L784.5,39.1l0.7-0.7c0.6-0.8,1.3-1.4,1.8-2.2c0.2-0.3,0.4-0.6,0.6-0.8l0.1-0.4c0-0.1,0-0.1,0-0.2
				s-0.1-0.4-0.1-0.7V34c-0.8-1.2-1.7-2.4-2.4-3.7c-0.8-1.5-1.3-3.1-2.1-4.6s-2.3-2.5-4-2.6c-0.6,0.1-1.2,0.2-1.7,0.5
				c-0.4,0.2-0.8,0.5-1.2,0.7C779.1,29.2,781.9,34.1,784.5,39.1z"/>
		</g>
		<g>
			<path class="st3" d="M1086,22.4L1086,22.4l0.7-0.7c0.6-0.8,1.3-1.4,1.8-2.2c0.2-0.3,0.4-0.6,0.6-0.8l0.1-0.4c0-0.1,0-0.1,0-0.2
				s-0.1-0.4-0.1-0.7v-0.1c-0.8-1.2-1.7-2.4-2.4-3.7c-0.8-1.5-1.3-3.1-2.1-4.5c-0.8-1.5-2.3-2.5-4-2.6c-0.6,0.1-1.2,0.2-1.7,0.5
				c-0.4,0.2-0.8,0.5-1.2,0.7C1080.6,12.5,1083.5,17.4,1086,22.4z"/>
		</g>
		<g>
			<path class="st3" d="M968.8,57.2c0.1,1.2,0.4,2.4,0.7,3.5c0.5,1.3,1.1,2.6,1.8,3.8c3.1,0.4,6.1,0.7,9.2,0.9
				c1,0.1,1.9,0.2,2.9,0.5l1.4-1.4l0.2-0.2l-1.3-15.8c-0.3-0.7-0.6-1.3-1-1.9c-0.7-1.1-1.6-2-2.7-2.7c-1.1,0.4-2.3,0.7-3.6,0.8
				l-1.6,0.2C973.6,49.4,971.5,53.5,968.8,57.2z"/>
		</g>
		<g>
			<path class="st3" d="M1025.5,70.5c-1.1-1.7-2.3-3.2-3.3-5s-1.6-3.9-2.7-5.7c-4.1,0.3-8.2,0.5-12.3,0.8c-2.2,3.9-2.6,8.5-1.2,12.7
				c1,2.7,2.4,5.2,4.2,7.4c1.1-0.1,2.1-0.2,3.2-0.3c1.5-0.2,3.1-0.2,4.7,0l0.2-0.2c1-1,2-2,3-3l0.8-0.8c0.8-1,1.7-1.9,2.4-3
				c0.3-0.4,0.5-0.8,0.8-1.1l0.2-0.5c0-0.1,0-0.2,0-0.2S1025.6,70.9,1025.5,70.5L1025.5,70.5z"/>
		</g>
		<g>
			<path class="st3" d="M1145.1,21.3c-1.1-1.7-2.3-3.2-3.3-5s-1.6-3.9-2.7-5.7c-4.1,0.3-8.2,0.5-12.3,0.8c-2.2,3.9-2.6,8.5-1.2,12.7
				c1,2.7,2.4,5.2,4.2,7.4c1.1-0.1,2.1-0.2,3.2-0.3c1.5-0.2,3.1-0.2,4.7,0l0.2-0.2c1-1,2-2,3-3l0.8-0.8c0.8-1,1.7-1.9,2.4-3
				c0.3-0.4,0.5-0.8,0.8-1.1l0.2-0.5c0-0.1,0-0.2,0-0.2S1145.2,21.7,1145.1,21.3L1145.1,21.3z"/>
		</g>
		<g>
			<path class="st3" d="M950.9,77.1c-1.1-1.7-2.3-3.2-3.3-5s-1.6-3.9-2.7-5.7c-4.1,0.3-8.2,0.5-12.3,0.8c-2.2,3.9-2.6,8.5-1.2,12.7
				c1,2.7,2.4,5.2,4.2,7.4c1.1-0.1,2.1-0.2,3.2-0.3c1.5-0.2,3.1-0.2,4.7,0l0.2-0.2c1-1,2-2,3-3l0.8-0.9c0.8-1,1.7-1.9,2.4-3
				c0.3-0.4,0.5-0.8,0.8-1.1l0.2-0.5c0-0.1,0-0.2,0-0.2S951,77.5,950.9,77.1C950.9,77.2,950.9,77.1,950.9,77.1z"/>
		</g>
		<g>
			<path class="st3" d="M990.6,19.8c2.1,3.5,5.4,6.1,9.3,7.3c2.8,0.7,5.6,1,8.5,0.7c0.5-1,1-1.8,1.6-2.8c0.4-0.8,1-1.6,1.5-2.4
				c-0.6-1.8-1.3-3.4-2-5.1c-0.4-1-0.9-2.1-1.3-3.1c-4.5-0.2-9-0.7-13.4-1.7L990.6,19.8z"/>
		</g>
		<g>
			<path class="st3" d="M1058.4,35.5c-1.1-1.7-2.3-3.2-3.3-5c-1-1.8-1.6-3.9-2.7-5.7c-4.1,0.3-8.2,0.5-12.3,0.8
				c-2.2,3.9-2.6,8.5-1.2,12.7c1,2.7,2.4,5.2,4.2,7.4c1.1-0.1,2.1-0.2,3.2-0.3c1.5-0.2,3.1-0.2,4.7,0l0.2-0.2c1-1,2-2,3-3l0.8-0.8
				c0.8-1,1.7-1.9,2.4-3c0.3-0.4,0.5-0.8,0.8-1.1l0.2-0.5c0-0.1,0-0.2,0-0.2S1058.4,35.9,1058.4,35.5
				C1058.4,35.6,1058.4,35.6,1058.4,35.5z"/>
		</g>
	</g>
</g>
</svg>
